<?xml version="1.0" encoding="UTF-8"?>
<svg id="Layer_1" xmlns="http://www.w3.org/2000/svg" version="1.1" viewBox="0 0 1080 1350">
  <!-- Generator: Adobe Illustrator 29.8.1, SVG Export Plug-In . SVG Version: 2.1.1 Build 2)  -->
  <defs>
    <style>
      .st0 {
        fill: #b5ba6a;
      }

      .st1 {
        fill: #f1f8ef;
      }

      .st2 {
        fill: #fdfdfe;
      }

      .st3 {
        fill: #faf9fc;
      }

      .st4 {
        fill: #daebc8;
      }

      .st5 {
        fill: #daecd2;
      }

      .st6 {
        fill: #c4da9d;
      }

      .st7 {
        fill: #c7dea6;
      }

      .st8 {
        fill: #e7f3e4;
      }

      .st9 {
        fill: #cee0aa;
      }

      .st10 {
        fill: #c4d88c;
      }

      .st11 {
        fill: #93a86c;
      }

      .st12 {
        fill: #c2c48f;
      }

      .st13 {
        fill: #cbe2a5;
      }

      .st14 {
        fill: #a6ba85;
      }

      .st15 {
        fill: #a4b892;
      }

      .st16 {
        fill: #e7f2df;
      }

      .st17 {
        fill: #868b43;
      }

      .st18 {
        fill: #a5a76b;
      }

      .st19 {
        fill: #d5eacd;
      }

      .st20 {
        fill: #778144;
      }

      .st21 {
        fill: #c9e3b4;
      }

      .st22 {
        fill: #d0e6bd;
      }

      .st23 {
        fill: #80945b;
      }

      .st24 {
        fill: #b8c072;
      }

      .st25 {
        fill: #e3f1dc;
      }

      .st26 {
        fill: #a9bc8b;
      }

      .st27 {
        fill: #d4e7b1;
      }

      .st28 {
        fill: #c4dfa1;
      }

      .st29 {
        fill: #cce3a7;
      }

      .st30 {
        fill: #dfeed3;
      }

      .st31 {
        fill: #f5faf5;
      }

      .st32 {
        fill: #d1e8c7;
      }

      .st33 {
        fill: #afce71;
      }

      .st34 {
        fill: #deeed2;
      }

      .st35 {
        fill: #879037;
      }

      .st36 {
        fill: #b7ce8e;
      }

      .st37 {
        fill: #9fa964;
      }

      .st38 {
        fill: #b4ce7a;
      }

      .st39 {
        fill: #aec695;
      }

      .st40 {
        fill: #eef6eb;
      }

      .st41 {
        fill: #d1e6b5;
      }

      .st42 {
        fill: #bec877;
      }

      .st43 {
        fill: #e3f0dc;
      }

      .st44 {
        fill: #84955e;
      }

      .st45 {
        fill: #bfd886;
      }

      .st46 {
        fill: #aec57f;
      }

      .st47 {
        fill: #deedcc;
      }

      .st48 {
        fill: #c6d99c;
      }

      .st49 {
        fill: #bedea8;
      }

      .st50 {
        fill: #b4c382;
      }

      .st51 {
        fill: #cee4ae;
      }

      .st52 {
        fill: #92b15a;
      }

      .st53 {
        fill: #eef7ed;
      }

      .st54 {
        fill: #cdd58f;
      }

      .st55 {
        fill: #919b54;
      }

      .st56 {
        fill: #d9ebc7;
      }

      .st57 {
        fill: #c8e096;
      }

      .st58 {
        fill: #8ba263;
      }

      .st59 {
        fill: #ddedcd;
      }

      .st60 {
        fill: #cfe0ab;
      }

      .st61 {
        fill: #a3a957;
      }

      .st62 {
        fill: #9eb576;
      }

      .st63 {
        fill: #f4faf4;
      }

      .st64 {
        fill: #80853f;
      }

      .st65 {
        fill: #b9d7af;
      }

      .st66 {
        fill: #7f8238;
      }

      .st67 {
        fill: #ddeed6;
      }

      .st68 {
        fill: #d2e7bc;
      }

      .st69 {
        fill: #cfe5b8;
      }

      .st70 {
        fill: #a6a85a;
      }
    </style>
  </defs>
  <path class="st31" d="M582.51,607.22c-1.3,4.89-5.87,4.11-9.26,5.09-2.43.71-4.69,1.97-7.57,1.7-2.15-.2-2.5,3.21-.58,5.51-.37,2.01-3.27,2.54-2.87,5.02.38,2.39,2.89,2.71,4.1,4.32,1.39,1.84,2.59,3.5,2.58,6.02,0,2,1.44,3.77,2.11,5.7.28.81.67,1.58.95,2.39,1.02,2.87-1.82,5.89.91,8.93,2.11,2.36.67,6.14,1.49,9.03,1.5,5.26,1.97,10.74,3.74,15.92,2.54,7.44,5.1,14.98,10.04,21.16,4.49,5.61,6.79,12.67,12.18,17.6.55,4.41,4,5.07,7.44,6.03,2.42.68,2.68,2.16.85,3.78-1.09.96-.75,1.61-.08,2.41,1.13,1.36,2.46,2.27,4.32,2.53,4.94.71,6.49,4.47,3.48,8.38-.66.86-.76,1.54-.03,2.24,2.16,2.08,4.05,4.61,5.56,6.95,2.01,3.12,5.54,4.87,6.67,8.97.87,3.14,3.82,6.05,8.21,5.3,1.43-.24,2.75.37,4.01,1,1.07.53,1.85,1.27,1.2,2.54-1,1.96.2,3.07,1.52,4.05,6.04,4.49,12.4,8.7,19.68,10.54,5.77,1.46,11.78,2.42,17.79,2.93,6.29.53,12.51.97,18.43,3.91,3.6,1.79,8.01,1.08,12.06,1.08,2.02,0,3.9-2.77,3.9-5.08,0-.6.05-1.15.59-1.36,3.42-1.3,6.71-3.12,10.56-2.86-.51,2.43-1.29,4.57-3.8,5.85-1.84.94-3.55,2.14-2.77,5.01.68,2.53-.68,4.02-3.53,4-3-.01-5.89.45-7.86,3.95,2.44-.61,4.42-1.16,6.39-.23.35.16.84.01,1.27.02,1.19.01,1.85-2.04,2.97-1.18,1.41,1.09.83,2.99.86,4.57.05,2.69-.18,5.39.07,8.06.24,2.69-2.1,4.79-1.32,7.68.3,1.11-1.34,2.24-2.99,2.31-1.5.07-1.95.64-.75,1.97,2.32,2.56,1.99,5.09-.86,6.74-1.03.6-1.3,1.22-.87,2.35,1.72,4.48.29,7.71-3.26,10.98-1.94,1.79-3.88,3.13-6.18,4.06-2.9,1.17-3.61,3.35-3.27,6.16.2,1.66-.39,3.34-1.74,3.87-2.75,1.1-4.54,3.59-7.26,4.58-1.55.56-1.59,2.18-2.53,3.15-2.1-1.39-1.23-2.85-.07-4.38-1.35-.02-2.41,1.04-3.66.98-1.74-.08-4.02.21-3.39-2.78.3-1.43-.78-1.22-1.52-1.49-1.85-.67-4.64.21-5.46-2-.84-2.29,2.25-2.76,3.15-4.37.15-.27.31-.56-.03-1-3.38.77-6.62,2.84-10.43,1.89-1.19-.3-1.58.85-1.85,1.82-.08.3-.2.58-.34.85-2.01,3.35-5.25,2.39-7.79,1.53-2.53-.85-5.77-.8-7.29-4.1-.46-1.01-2.95-2.23-4.21-.9-1.27,1.34-.04,2.99,1.16,4.19.86.85,1.9,1.41,3.04,1.78,1.31.42,2.3,1.22,2.76,2.52.81,2.3,2.38,2.34,4.4,1.79,4.2-1.14,8.39-1.78,12.54.42,1.64.87,3.37,0,5.04-.36.96-.21,2.05-.37,2.52.77.41,1-.03,2.1-.86,2.57-2.49,1.39-4.95,3.22-8.08,2.27-2.37-.72-4.61-.98-6.78.55-.84.59-1.85.55-2.81.3-2.38-.63-4.67-1.37-7.26-1.04-2.04.26-2.25-1.49-2.26-3.12,0-.98,1.05-2.47-.36-2.86-2.45-.67-3.55-4.54-6.96-2.83-1.47.74-3.12.92-4.73.59-1.73-.35-2.85-1.02-1.49-3.07,1.6-2.41.46-4.9-2.36-5.18-2.74-.27-5.01-1.97-8.49-2.26,1.81.67,3.08.57,4.15,1.14.92.5,1.53,1.19,1.48,2.29-.04.99-.61,1.59-1.51,1.87-1.32.41-2.54,1.04-4.1,1.6,1.42.15,2.86-.02,3.13,1.33.22,1.1-.93,1.85-1.71,2.58-.73.69-1.67.96-2.6,1.24-1.28.39-2.27,1.04-2.89,2.34-1.22,2.54-3.01,3.17-4.95,1.35-2.19-2.06-4.46-2.3-7.12-1.68-.86.2-1.73.12-2.56-.08-4.18-1.01-8.44-1.46-12.68-2.09-1.86-.28-2.81-1.36-3.2-3.13-.22-.99-.14-2.25-2-2.5.75,1.39,1.75,2.36,2.15,3.72.61,2.11-.08,3.26-2.13,3.3-1.98.03-3.42.66-4.81,2.09-1.41,1.45-3.46,1.7-5.43,1.53-1.64-.15-2.96-.97-2.95-2.81.02-2.3-1.46-2.87-3.27-3.22-2.01-.39-4.01-.79-6.05-.97-1.13-.1-2.53-.67-1.97-1.91,1.09-2.43-.67-3.31-1.95-4.41-1.68-1.45-2.99-3.08-3.52-5.26-3-6.42-5.78-12.93-7.76-19.74-2.03-6.99-5.27-13.6-6.93-20.67-1.57-6.65-3.02-13.36-3.32-20.28-.14-3.15-.82-6.35-1.16-9.54-.25-2.37.38-2.86,2.5-1.73,3.16,1.67,5.88,3.96,8.26,6.62,1.73,1.94,3.51,3.79,6.13,4.52.99.27,1.63.91,2.07,1.87,2.09,4.62,7.63,7.74,12.83,7,2.73-.39,5.31-.39,7.92.55,2.53.91,5.11.11,7.66-.16.63-.07,1.34-.38,1.23-1.19-.09-.65-.77-.67-1.29-.71-1.39-.11-2.8-.14-4.04-.92-2-1.25-2.17-2.55-.28-3.88.68-.48,1.19-.72.99-1.67-.2-.96-.91-.74-1.5-.8-1.24-.13-2.21-.78-3.18-1.48-3.93-2.81-7.72-5.8-11.28-9.07-2.24-2.06-4.67-3.77-7.65-4.61-1.73-.49-3.63-.78-3.62-3.35,0-1.24-1.26-.91-2.05-.93-2.69-.08-5.36.35-8.06.17-1.67-.11-3.02-.51-2.79-2.63.1-.89-.24-1.65-.61-2.45-1.21-2.62-.87-3.2,1.93-3.42,1.25-.1,2.51-.09,4.06-.38-1.52-1.78-3.23-2.11-5.09-2.22-4.18-.25-4.59-.61-5.7-4.49-.68-2.39-2.89-2.65-4.79-3.27-.81-.27-1.71,0-2.57-.13-3.32-.52-4.38-2.54-2.89-5.53.48-.96,1.12-1.83,1.77-2.69.64-.86,1.54-1.48,2.37-2.59-6.09-1.63-4.94-7.14-5.67-11.29-.77-4.4-1.62-8.82-2.3-13.25-.11-.61-.09-1.22.15-1.8,1.81-1.48-.53-1.7-.78-2.56-.91-5.62-1.55-11.25-1.69-16.94-.26-10.49-.25-20.98-.55-31.48-.11-3.76-.02-7.54,2.14-10.87,1.19-1.85.49-3.11-1.1-4.36-2.93-2.3-2.65-2.26-.9-5.44,2-3.65,4.26-7.21,5.85-11.05,1.08-2.61,2.59-3.75,5.33-3.57,1.49.09,3.01.11,4.46-.41,6.82-.63,13.46-2.59,20.32-2.92,1.15-.05,2.17-.55,2.63-1.59,1.84-4.15,5.31-5.63,9.51-5.98,3.49-.47,6.86-1.19,9.78-3.37,1-.75,2.21-1.35,3.49-.36Z"/>
  <path class="st67" d="M524.44,709.86c1.07,3.83,2.6,7.65,2.29,11.66-.26,3.3,1.66,6.03,1.56,9.36-.06,2.07,3.09,2.72,6.09,2.72-2.5,2.11-4.54,3.78-5.79,6.12-.6,1.14-1.49,2.35-.54,3.58.81,1.05,2.38,1.68,3.44,1.23,2.28-.96,3.63.82,5.36,1.34,2.13.65,1.84,2.48,2.07,4.39.21,1.76,2.49,2.24,4.47,2.11,3.08-.2,5.61.67,7.04,4.31-2.35-.66-4.28.17-6.26-.11-.56-.08-1.13-.2-1.43.34-.37.66-.01,1.25.51,1.7.49.41,1.28.76,1.11,1.46-1.1,4.53,2.18,3.38,4.41,3.37,2.31,0,4.62-.33,6.93-.35,1.09,0,2.79.04,1.65,1.94-1.01,1.67.32,2,1.23,2.16,4.64.83,7.86,3.76,11.2,6.79,3.39,3.07,7.21,5.65,10.85,8.45.08.06.18.11.27.17,1.11.64,3.56.07,3.37.6-.6,1.62.76,2.01,1.34,2.87-.33.27-.46.45-.64.52-1.07.42-3.07-.96-3.19.96-.11,1.71,1.85,2.07,3.31,2.37.62.13,1.29.01,1.93.04,1.12.06,2.49-.32,2.6,1.53.11,1.72-1.29,2-2.33,2.09-3.34.31-6.75,1.33-10.01-.44-1.4-.76-3.04-.56-4.3-.22-5.27,1.41-9.34-.97-13.38-3.67-.44-.29-1.07-.72-1.11-1.12-.46-5.13-6.27-4.55-8.45-8.03-2.23-3.57-5.96-5.74-9.98-7.72,1.57,2.78.22,5.76,1.24,8.78,1.16,3.42.62,7.37,1.25,11.02.84,4.87,2.19,9.64,3.41,14.42,1.89,7.4,5.15,14.27,7.08,21.65,1.26,4.84,3.2,9.67,5.87,14.07.31.51.27,1.23.39,1.85-1.08.85-1.16.86-3.58.47,2.21,2.11,4.7,3.1,6.6,4.88,1.59,1.48,2.2,3.4,1.58,4.89-.83,1.99-.06,2.38,1.33,3.16,1.95,1.1,1.86,3.37,1.87,5.12.01,1.5-1.73,1.68-3.08,1.3-1.9-.53-3.68-2.24-5.5.56-.72,1.11-2.79.19-4.26.19,1.25.3,2.47.65,3.7.97,3.54.89,3.91,1.32,3.5,4.73-.2,1.7-1.47,1.23-2.48,1.05-2.88-.52-5.54-1.75-8.2-2.86-2.36-.98-4.29-.49-6.36.79,1.19,1.37,2.75.82,4.03,1.22,1.51.47,2.04,1.45.86,2.58-1.5,1.44-3.29,2.68-5.41,1.06-1.76-1.34-3.75-1.53-5.81-1.45-3.97.15-7.9.16-11.76-1.01-1.94-.59-3.84.16-5.71.56-2.53.55-4.88.49-7.11-1.01-1.28-.86-2.76-1.19-4.3-1.14-2.95.1-5.82.08-7.95-2.49-.4-.49-1.21-.39-1.79-.68-2.4-2.9-2.22-6.6-2.97-9.98-2.03-9.18-1.02-18.57-1.62-27.86-.15-2.38.59-4.68.96-6.99,1.51-9.51,1.52-19.29,4.73-28.51,1.69-4.84,3.46-9.66,5.82-14.23.71-1.37,1.22-2.72,1.09-4.29-.09-1.07-.22-2.28.4-3.14,1.53-2.13.65-3.98-.24-5.97-.55-1.23-1.3-1.6-2.51-1.35-.95.19-1.83.63-2.78.78-1.18.08-2.98.28-3.08-.92-.16-1.88-1.08-4.13.37-5.74.82-.91.91-1.19.07-1.89-.66-.55-1.25-1.19-1.95-1.69-2.36-1.7-3.91-1.22-5,1.42-.85,2.05-.32,4.76-3.3,5.8-2.28.8-4.53,1.01-6.89,1.24-3.71.36-7.34,1.45-11.12,1.25-.62-.03-.86.47-1.14.97-1.08,1.95-2.51,1.13-3.83.35-1.51-.9-1.28-1.97-.24-3.18,1.34-1.55.39-2.1-1.14-2.09-2.51,0-4.86.56-7.04,1.93-2.57,1.6-3.49,1.24-4.51-1.47-.19-.51-.26-1.07-.72-1.39-1.01-.71-2.02-1.39-1.18-2.84.84-1.42,2.22-2.41,3.73-2.02,2.93.75,5.75.23,8.58-.11-.52-.54-1.37-.73-2.04-1.21-1.39-.98-1.31-2.43-1.1-3.79.26-1.68,1.68-1.27,2.84-1.26,2.6.02,5.1-.54,7.63-1.4-1.06-1.65-3.67-1.62-3.91-3.7-.16-1.38.08-2.9,1.15-4.12-2.03.2-4.03.53-6.06.55-2.25.02-3.22-.88-2.62-3.16,1.96-4.1,3.92-8.2,5.88-12.3,5.95.03,7.56-4.95,9.49-8.9,4.51-9.18,10.35-17.47,16.38-25.62,2.26-3.05,2.79-6.13,1.84-9.64-.24-1.28-.33-2.56.09-3.82,1.07-1.47,1.97-1.81,2.32.43.23,1.48-.28,3.28,1.85,3.84,1.1.06,2.03.28,1.38,1.72-.31.69-.96,1.17-1.27,1.85-.51,1.14-1.68,2.36-.93,3.54.65,1.04,1.97.03,2.98-.03.98-.06,2.07-.28,2.67.63,1.34,2.02,2.58,1.47,3.83,0,.99-1.16,2.26-1.59,3.72-1.56,1.38.03,3-.27,3.83,1.11.97,1.6.03,3.34-.21,5-.1.72-.95,1.07-1.53.72-3.08-1.82-5.44.68-8.37,1.04,4.26,3.59,6.45,3.63,10.29.41,2.35-1.97,5.46-1.59,7.19.96.77,1.14.7,2.77-.71,2.84-3.73.21-6.57,3.26-10.48,2.85-1.25-.13-2.83-1.3-4.05.53,2.82-.48,5.58-.36,8.37.12,3.27.56,3.68,1,2.61,4.2-.31.91.35,1.12.8,1.49,1.96,1.57,4.13,2.22,6.62,1.45Z"/>
  <path class="st34" d="M726.5,778.97c-3.55,1.2-7.11,2.41-10.67,3.61.41,1.54,2.21.24,2.62,1.84-2.13.1-3,1.45-4.02,3.21-.74,1.29-2.66,2.18-4.92,1.6-2.58-.65-5.38-.48-8.09-.57-1.32-.04-2.45-.2-3.55-1.13-2.69-2.31-6.21-2.11-9.43-2.58-8.11-1.21-16.4-1.58-24.35-3.42-3.79-.88-7.96-1.86-11.35-4.85-2.46-2.17-5.86-3.41-8.69-5.33-1.27-.86-2.27-1.96-3.34-3-.48-.47-.77-1.03-.54-1.74.78-2.35-.6-3.94-3.23-3.72-5.32.44-9.16-2.5-9.86-7.62-.11-.78-.31-1.93-.88-1.92-3.27.07-2.73-3.52-4.1-4.33-3.14-1.85-3.92-5.28-6.39-7.42-1.4-1.21-2.73-2.57.25-3.62,2.55-.89.7-2.73.72-4.1.02-1.8-1.21-2.91-2.93-2.64-3.12.49-4.78-1.49-6.45-3.44-1.08-1.26-1.84-2.74.86-3.08.53-.07,1.27-.11,1.15-.76-.1-.54-.77-1.45-1.09-1.41-1.88.24-3.16-1.81-5.35-.97-1.6.61-2.34-1.95-2.38-2.71-.16-3.74-3.59-5.17-5.11-7.92-1.5-2.72-3.11-5.38-4.58-8.13-1.19-2.22-3.3-3.88-4.65-6.15-5.39-9.11-8.99-18.73-11.06-29.21-.9-4.54-1.27-9.13-2.2-13.65-.19-.92-.53-1.97-1.15-2.6-1.27-1.29-4.14-2.09-.5-4.1.23-.12.44-3.32-.35-5.05-1.38-3-3.29-5.73-2.98-9.41.15-1.84-2.07-3.22-3.42-4.41-1.49-1.31-3.7-1.74-3.28-4.43.36-2.31,2.01-3.39,3.87-4.3,4.98-.02,7.93,2.19,10.16,8.14,3.03,8.11,6.23,16.19,8.38,24.59,3.19,12.46,7.34,24.67,12.97,36.12,5.52,11.24,11.73,22.43,21.81,30.6,2,1.63,4,3.24,5.75,5.14.91.99,1.79,1.6,1.52,3.63-.23,1.68,1.95,3.93,4.07,5.14,1.7.97,2.94.32,3.93-.93,1.56-1.96,2.94-.99,4.42.06-.09.84-.86.88-1.38,1.02-2.06.54-2.35,2.01-1.97,3.72.44,1.94,1.86,2.61,3.67,2.08,2.36-.69,4.61-.99,6.72.64.24.19.7.19.85.41,3.69,5.71,10.04,7.17,15.7,9.49,5.55,2.28,11.46,3.59,17.47,4.42,3.78.52,7.46,1.7,11.19,2.58.79,2.18,2.31,3.03,4.67,3.09,3.52.09,7.05.15,10.53.99,2.9.7,5.71-.46,8.55-.88.72-.11,1.42-.72,2.16-.55,2.49.59,2.96-.79,3.04-2.81.07-1.92,1.25-2.63,3.06-2.34,2.76.44,4.73-.12,4.71-3.47,0-.51.34-1.08.75-1.4,2.49-1.89,3.56-4.54,4.09-7.47.44-2.46,1.75-3.81,4.49-3.47-2.17-3.31-1.94-6.16.86-8.95,1.63-1.63.07-3.95,1.46-5.62.1-.12-.94-2.07-2.51-1.95-1.65.13-2.87.63-3.34,2.42-1.19,4.49-3.01,8.74-5.09,12.88-1.02,2.03-2.17,3.99-3.95,5.45-1.21.98-2.57,1.84-3.76-.1,6.18-9.21,8.25-19.46,7.72-30.37,3.46-4.04,4.23-4.01,9.39.4,1.46-2.7,1.06-3.4-2.77-4.9-2.82-1.11-3.11-1.84-2.05-4.56.85-2.2,2.18-3.29,4.41-1.9,1.24.77,2.83.21,3.91,1.29.11,4.6,2.12,8.8,2.77,13.34,1.1,7.68-.14,15.1-1.04,22.62-.65,5.43-1.98,10.78-3.96,15.74-2.42,6.04-3.52,12.79-7.62,17.98-1.8,2.28-2.68,4.91-4.34,7.14Z"/>
  <path class="st63" d="M529.61,543.35c-1.13-4.29.07-8.06,3.32-10.27.44-.3.87-.45,1.12-1.02,1.42-3.28,6.08-5.26,9.76-4.19,1.05,1.16,1.17,2.65,1.45,4.08.42,2.13.39,2.14,2.03,1.96,0,3.45-.96,6.77-1.54,10.13-1.01,5.82-.22,11.33,2.11,16.68,1.37,3.15,3.46,5.42,7.14,5.68,1.9.13,3.36,1.37,5.05,2.03,5.66,1.94,11.2,4.24,16.98,5.86.87.24,1.58.66,1.91,1.55.11.55-.07,1.03-.32,1.52-2.19,4.19-2.03,5.22,2.02,7.69,1.81,1.1,3.12-.53,4.18-1.79,2.44-2.89,2.4-2.92,5.73-1.08.9.7,1.86.88,2.95.45.86-.34,1.79-.77,2.58.19-.37,3.73-1.27,4.18-4.68,3.15-2.02-.61-4.4-2.63-6.23.88-.48.92-2.67,1.13-4.19,1.03-1.42-.09-2.75.27-4.09.63-.64.17-1.11.33-1.43,1.05-.66,1.53,1.78,1.73,1.19,3.29-.88,2.34,1.24,1.11,2,1.52,2.04,1.11,4.9.2,6.43,2.57-.73.67-1.62.32-2.44.39-3.69.32-7.48.29-10.02,3.79-1.28,1.76-3.03,1.02-4.65.4-1.08-.2-2.18-.13-3.2.16-4.73,1.34-9.48,1.7-14.32.69-.06-.01-.17-.04-.32,0-5.83,1.42-11.64.95-17.48.01-2.14-.34-3.65.86-4.75,2.66-1.59,2.58-2.57,5.43-3.77,8.18-.65,1.48.05,2.45,1.09,3.35,1.21,1.05,2.62,2,2.2,3.96-.27.69-.78,1.07-1.5,1.19-2.68-1.39-4.55-3.75-6.73-5.74-.78-.72-1.33-1.77-2.28-2.24-5.34-2.66-9.06-7.33-13.64-10.91-1.09-.85-1.7-2.13-2.87-3.19-1.12,3.98.93,8.21-1.85,11.64-.35.07-.64-.02-.89-.27-1.06-2.01-.5-4.18-.62-6.28-.46-8.32-1.34-16.53-6.03-23.78-.99-1.13-1.62-2.48-2.28-3.8-2.15-5.59-4.59-11.07-7.02-16.54-1.02-2.31-1.34-4.44-.06-6.73.89-1.6,1.02-3.48,1.54-5.22.97-3.28,1.87-6.61,4.19-9.29.5-.58.85-1.29.76-2.06-.33-2.71,1.08-4.46,3.11-5.9,1.06-.67,1.47-1.67,1.5-2.88,1.01-2.43,2.13-.91,2.94.04,4.53,5.34,9.42,10.35,13.82,15.82,5.06,6.31,8.5,13.78,14.34,19.52,1.63,1.6,1.68,4.87,5.04,4.61,1.69,3.94,2.19,8.2,3.14,12.33.63,2.76,1.68,5.31,3.03,7.73,1.3,2.33,2.74,2.45,4.55.52,3.41-3.65,5.48-7.82,4.83-12.98-.59-4.94-1.82-9.72-3.66-14.34-2.14-8.28-4.59-16.46-8.21-24.26-.26.48-.34,1.02-.53,1.52-.94,1.37-.23,3.67-2.43,4.31Z"/>
  <path class="st41" d="M421.11,580.79c-1.91-2.99-2.29-6.59-3.85-9.71-1.81-3.31-1.84-5.21.69-7.88,1.99-2.1,1.66-3.43-.45-4.84-.82.2-.39.63-.31.96.35,1.4.1,2.94-1.25,3.24-1.6.35-1.35-1.53-1.78-2.51-.26-.58-.31-1.25-.43-1.88-.26-1.22-.53-2.43-.59-3.68-.06-.43-.02.11-.01-.32.02-2.13-1.75-4.59.55-6.29,1.63-1.19,6.76,1.35,8.39,3.56-1.94-2.4-2.02-6.16-5.69-7.31-.82-.26-1.71-.68-1.71-1.69,0-.93.94-1.17,1.63-1.29,1.71-.3,2.32-2.26,4.02-2.52,4.26,4.67,9.53,7.92,15.14,10.68.29.78.23,1.68.4,2.37.44,1.83,3,2.77,2.41,5.2.77.17,1.49-.03,2.21-.27,1.57-.52,2.97.01,4.32.72,1,.53,1.81,1.31,1.56,2.55-.25,1.24-1.4,1.05-2.47,1.27,5.37,1.47,9.11,5.21,13.01,8.71.62.56,1.38.5,2.14.43,1.1-.09,1.88.44,2.28,1.43.46,1.14-.18,1.89-1.12,2.34-1.04.5-1.56,1.44-2.21,2.28-.33.43-.83.97-.27,1.36,3.07,2.14,2.29,6.34,4.9,8.8,1.53,1.44,1.21,3.31-.3,4.88-1.47,1.54-2.05,2.84.8,3.54,2.04.5,2.2,2.11,1.07,3.47-1.25,1.51-.95,2.68,0,4.03.74,1.05,1.21,2.29,2.06,3.27,1.27,1.48,1.19,3.12.03,4.41-1.87,2.08-.79,3.44.74,4.86,2.9,2.69,2.93,2.73-.06,5.18-1.12.92-.89,1.85-.3,2.84.9,1.5,1.21,2.86.93,4.79-.23,1.59,1.43,3.6,3.07,4.48,2.87,1.54,3.93,3.46,3.06,7.25,3.58-.09,6.91-1.77,10.49-1.39.56.06,1.03-.38,1.2-.92.86-2.67,2.91-2.53,4.99-2.04,1.18.27,2.17.43,3.4-.09,2.13-.9,2.94,1.58,4.55,2.15.06,5.04-.68,9.87-3.69,14.11-1.02.87-2.17.9-3.3.32-1.71-.87-2.48-2-.67-3.57-.24-.14-.59-.2-.64-.04-1.39,4.53-5.5,3.19-8.61,4.03-3.45.94-6.8,1-9.88-1.13-1.83-1.27-3.46-.86-4.95.52-1.04.96-2.16,1.75-3.43,2.35-2.09.98-3.97.86-5.51-1.01-3.04-3.71-6.97-4.91-11.53-3.86-2.38.55-4.68-.18-7.05,0-2.17.17-4.45.75-6.83-.52.23,2.26.78,3.75,3.17,2.78,2.44-.99,3.81.71,4.79,2.17,1.02,1.53.38,3.37-1.27,4.43-.92.59-1.54,1.14-1.25,2.29.27,1.07,1.06,1.56,2.05,1.81.31.08.65.23.94.18,4.59-.82,9.3.15,13.86-.86,2.05-.45,3.07,1.1,4.7,1.71-4.41,2.44-9.52,1.87-13.97,3.72-4.88,1.65-9.53-.1-14.17-1.14-2.31-.52-5.03-.33-6.68-2.63.07-.73.45-1.6.18-2.17-2.66-5.47-1.12-10.86.41-16.15,2.42-8.34,4.22-16.92,8.89-24.45.77-.24,1.41,1.42,2.5-.43,1.44-2.44,4.6-3.6,5.78-6.59.39-.99,1.91-.66,2.98-.54,1.07.12,2.35.37,2.97-.64.68-1.1-.78-1.53-1.22-2.3-1.35-2.37-1.58-5.23-3.57-7.4-.93-1.01.3-2.31,1.4-3.04-1.08-1.14-2.05-1.3-3.37-1.1-2.09.31-3.43-1.16-3.29-2.98.13-1.73-.69-2.39-1.42-3.65-1.39-2.4-3.73-3.08-5.48-4.69-.39-.36-1.02-.99-1.3-.86-5.22,2.35-5.77-3.17-8.49-4.98-.09-.06-.2-.09-.3-.13Z"/>
  <path class="st1" d="M414,554.32c.22,1.29.43,2.58.65,3.86-.9,1.84-.85,3.59.18,5.44.71,1.27,1.42,2.88.12,4.14-1.38,1.32-3.38.82-4.4-.19-2.35-2.31-4.54-1.06-6.85-.35-1.58-.22-3.31-.11-4.71-.74-4.76-2.12-10.41-1.36-14.78-4.68-.46-.35-1.21-.35-1.84-.41-5.72-.49-10.98-2.92-15.89-5.32-6.17-3.02-11.35-7.93-15.7-13.42-1.54-1.95-3.87-3.51-3.91-6.4.37-.57.49-1.17.29-1.83-.41-1.38-2.16-2.6-.26-4.23,1.09-.93,1.13-2.82,2.78-3.36,1.09-.36,1.18-1.06.76-2.01-.48-1.07-.72-2.23-1.26-3.29-1.96-3.84-.74-9.57,2.59-12.3.25-.21.58-.24.9-.13,1.48,3.33,2.63,6.74,5.47,9.44,1.58,1.5.22,2.96-3.35,3.18,1.54,2.11,2.99,3.49,5.6,2.28,1.41-.65,2.73-1.15,1.97,1.36-.5,1.64.83,1.24,1.5,1.16,4.12-.5,7.72.63,11.11,2.96,1.3.9,3,1.06,4.66.96,1.28-.07,2.65-.25,3.79.48,4.62,2.95,8.27.27,11.91-2.08,3.87-2.5,8.06-1.82,12.17-1.29,2.38.31,4.39.74,5.56-2.09.61-1.47,2.17-1.91,3.58-1.33,2.02.83,3.75-.22,5.62-.34,6.23-.41,11.98-3.63,18.36-3,.95.83,1.52,2.1,2.84,2.53,5.29,1.72,10.21,4.5,15.72,5.58,1,.2,2.33.97,2.96-.14.76-1.35-.88-1.93-1.56-2.8-.35-.41-.76-.77-1.05-1.23-.46-.74-.96-1.55-.45-2.39.55-.89,1.56-.66,2.36-.5,4.21.87,8.46,1.57,12.68,2.38,4.38,1.46,9.01,2.43,12.42,5.93,0,1.52-1.04,2.49-1.86,3.58-3.76,5.31-5.58,11.32-6.44,17.68-.06.43.02-.11-.03.32-.84,7.82-1.05,7.98-8.67,6.47-2.56-.58-5.23-.51-7.74-1.32-3.81-1.48-7.9-1.54-11.85-2.28-3.76-.7-7.43-1.71-11.09-2.79-1.32-.4-2.49-1.07-3.44-2.09-4.77-1.99-9.55-3.96-13.02-8.06-.74-.87-1.87-1.45-1.94-2.78-.81-.87-.43-1.8-.11-2.7.43-1.22.23-2.37-.56-3.32-1.3-1.57-2.82-3.51-4.89-3.12-1.9.36-1.63,2.84-1.74,4.42-.25,3.49-.55,6.97.1,10.52.42,2.29.83,5-1.98,6.57,1.05.93,2.1,1.83,2.75,3.09Z"/>
  <path class="st40" d="M499.87,866.77c.91-.52,1.87-.86,2.43.37,1,2.22,2.87,2.32,4.88,2.18,2.85-.21,5.48.21,7.94,1.92,2.53,1.76,5.21.13,7.76-.29,1.77-.29,3.38-.49,4.97.4,2.43,1.36,5.1.27,7.67.65,3.22.47,6.71-.93,9.39,2.16.6.69,4.23-1.06,4.35-1.97.09-.76-.46-.88-1-.91-.96-.06-1.97.09-2.89-.12-1.09-.25-2.6-.44-2.56-1.94.03-1.27,1.54-.81,2.23-1.27,3.31-2.19,6.08-.16,8.89,1.01,2.26.94,4.56,1.51,6.92,2.06.31-1.77-1.52-1.4-1.89-2.14.18-1.28,1.81-.4,1.85-1.96-2.3.4-4.21-1.4-6.56-.97-.85.15-1.53-.12-1.84-.91-.13-.33-.09-.92.13-1.18.51-.61,1.11-.64,1.98-.37,1.74.55,4.14,2.38,4.39-1.59.04-.62.88-1.07,1.49-.45.68.69,1.59.58,2.33.96,1.31.69,3.25,2.05,3.67.18.23-1.03.59-4.39-2.37-4.86-1.04-.16-1.85-.54-2.42-1.38-.31-.45-.5-.98-.06-1.47,2.36-2.64,2.17-3.86-1.16-6.14-1.41-.96-2.89-1.83-4.42-2.58-.89-.44-2.08-.7-1.63-1.91.49-1.32,1.83-.69,2.84-.66.73.02,1.06,1.66,2.1.54,1.39,3.73,4.69,5.76,7.4,8.39-.17,1.13-2.53.23-1.99,1.83.45,1.32,1.87.56,2.86.76,2.3.45,4.63.82,6.91,1.36,1.33.32,2.38,1.01,1.84,2.75-.73,2.33.89,3.15,2.58,2.87,1.91-.31,4.38.2,5.39-2.54.41-1.12,1.94-1.09,3.09-1.2,1.07-.11,2.79.91,2.97-.72.13-1.21-.35-2.88-1.69-3.79-.17-.12-.41-.13-.6-.23-.65-.39-1.52-.89-1.3-1.65.38-1.25,1.64-.66,2.51-.68.74-.02,2.18-.39,1.97.88-.82,4.87,2.69,5.43,5.79,5.34,3.53-.11,6.63,1.34,10,1.72,2.05.23,3.77-1.31,5.9-.35,1.18.54,2.68.1,3.31,1.87.47,1.3,2.05,1.13,3.09,1.2,1.34.09.64-1.18.75-1.94.25-1.79,1.97-2.64,3.19-2.72,2.28-.16,3.33-1.61,4.66-2.96-1.51-1.33-3.46-.19-5.73-.97,2.52-1.1,4.37-2.01,6.3-2.7.82-.29,1.76-.17,1.73-1.4-.02-1.09-.87-1.42-1.68-1.69-1.21-.41-2.6.07-3.76-.69-.51-.33-1.35-.48-1.08-1.31.23-.72,1-.86,1.62-.69,1.65.45,3.28,1,4.9,1.54.81.27,1.76,1.07,2.36.86,3.77-1.34,4.36,2.1,5.78,3.91.89,1.14-.65,2.01-1.62,2.66-.44.3-1.02.56-.79,1.2.19.56.78.7,1.33.72,1.72.06,3.37.04,5.03-.75,1.88-.89,3.78-.97,4.86,1.38.13.29.34.77.51.77,4.04.04,3.38,2.41,2.69,5.05-.38,1.48.59,2.34,2.08,1.76,1.79-.69,3.28-.21,4.94.44,1.7.65,3.43,1.4,5.27-.41,1.48-1.45,3.89-.96,5.49-.12,3.29,1.74,5.36-1.26,8.06-1.63.58-.08,1.32-1.33.79-2.16-.51-.81-1.37-.16-2.04.1-2.55,1-4.8.86-7.31-.66-2.44-1.48-5.36-.04-8.06,0-1.04.02-2.13.38-3.09.82-2.09.97-3.27.22-3.83-1.81-.47-1.69-1.39-2.44-3.17-3.05-2.53-.87-4.58-2.36-4.78-5.91-.18-3.27,2.36-2.52,2.81-1.99,1.29,1.5,5.37-.51,4.45,3.52-.03.14.44.55.7.57,3.34.25,6.2,2.48,9.72,2.18,1.49-.13,1.86-1.28,2.85-1.85,1.39.99,2.69,2.4,4.57,2.89-1.14-1.66-3.31-1.69-4.57-2.89-.33-2.22.07-4.09,2.72-3.23,3.57,1.16,6.35-.83,9.39-1.81.67-.21,1.27-1.15,1.99-.66.99.67-.04,1.54-.11,2.32-.15,1.72-1.88,1.85-2.87,2.73-.51.46-1.41.86-1.03,1.78.29.68,1.04.61,1.68.69,1.27.17,2.52.44,3.79.62,3.34.46,3.43.66,1.5,3.43,2.19,2.11,4.17.17,6.23-.32.77-.18,1.7-1.02,2.18.21.41,1.05-.72,1.05-1.31,1.42-1.64,1.04-1.02,2.36-.41,3.67-1.07.65-2.38.91-3.23,1.94-1.04.48-1.57,1.44-2.13,2.34-.61.99-1.63,1.91-2.54,1.79-3.49-.45-6.46,1.7-9.88,1.68-2.29-.02-5.35-.96-6.17,2.8-.17.77-1.21.69-1.98.75-1.04.09-2.14-.34-3.13.32-.43,0-.86,0-1.29,0-2.04.76-4.18.62-6.3.64-1.17.01-2.37-.14-3.39.64-1.2.77-2.54.66-3.87.65-3.45.74-6.92,1.26-10.46,1.2-1.75-1.12-1.54-2.79-.86-4.27,1.2-2.61,3.65-3.01,6.22-3.03-3.59-.24-7.27-2.01-10.65.87-.61.52-1.61.34-2.1-.21-3.23-3.63-7.75-3.25-11.92-3.89-2.16-.33-3.99-.49-5.23-2.9-1.01-1.96-3.55-1.3-5.83-1.56.58,2.06,2.15,2.22,3.47,2.71.98.36,1.95.91,1.27,2.08-.86,1.46-2.36,2.43-3.3,3.9-1.18,1.85-2.87.39-4.36.44-3.57.12-7.12.68-10.48,2.05-2.42.24-4.05-2.15-6.46-1.93-.9-.71-2.05-.19-3.07-.7-1.63-.82-3.54-1.26-1.55-4-2.27.31-3.96.15-5.65-.11-1.5-.23-2.39.37-1.62,2.03.89,1.95,1.18,4.12,2.21,6.01.18,1.85,1.9,3.35.94,5.53-.51,1.16.96,1.35,1.82,1.74,1.02.47,1.79,1.25,1.71,2.49-.09,1.35-.92,2.15-2.19,2.44-3.18.71-6.02,2.7-9.49,2.43-1.02-.08-2,.62-2.78,1.45-.5.53-1.14,1.15-1.8,1.26-7.48,1.28-14.03,5.4-21.55,6.73-5.12.91-9.5-.18-13.87-2.45-.57-.3-1.13-.62-1.71-.9-.69-.33-1.44-.7-1.88.33-.4.93.29,1.29.91,1.77.84.66,2.82.55,2.35,2.08-.49,1.61-2.04,2.41-3.89,2.19-2.49-.3-4.84,1.04-7.34.63-.05-2.56-1.22-3.58-3.78-2.77-.5.16-1.31.25-1.52-.13-1.45-2.61-4.74-2.67-6.5-4.81-.01-1.61,1.35-2.39,2.21-3.4,1.39-1.64,1.01-2.62-.75-3.43-1.58-.72-2.81-1.27-2.41-3.71.36-2.2-3.13-4.46-5.61-3.94-1.93.4-3.6.28-5.14-.96-1.85-1.49-1.7-2.74.42-3.9,2.61-1.43,4.98-.22,7.4.56-4.1-2.97-1.01-6.35-.45-9.61Z"/>
  <path class="st8" d="M459.84,736.99c.33,1.65.55,2.77,3.03,2.31,2.39-.44,4.95-.55,7.5-.69-.31,1.18-1.98,1.1-2.04,2.38-.09,1.85-.74,3.89,2.06,4.54,1.25.29,2.09,1.36,2.9,2.62-3.86.07-7.2,2.46-10.99,1.23-.39-.13-1.08.24-.85.63.57,1-.33,2.21.75,3.18,1.19,1.07,4.11.63,3.68,2.49-.32,1.35-2.93-.06-4.61.49-1.48.48-3.39,1.15-5.17-.24-.99-.77-2.27.1-3.24.79-.6.44-1.05,1.07-.82,1.92,4-1.38.65,6.41,4.8,4.04,2.63-1.5,5.15-2.29,8.07-2.63,1.51-.18,2.53-.16,3.14,1.25.55,1.29-.1,1.96-1.34,2.37-.62.21-1.21.9-.52,1.46.87.71,1.92,1.74,3.13,1.19,1.4-.64-.65-1.61.02-2.54,3.81.3,7.52.28,11.39-1,2.48-.82,5.5.21,8.29-1.13,1.45-.7,2.31-1.05,2.27-2.8-.02-1.01.54-2.03.86-3.04.76-2.43,2.73-3.36,4.93-2.11,1.18.68,2.18,1.71,3.18,2.67.71.68,2.28.74,1.93,2.21-.38,1.57-1.94.08-2.71.86.03,1.15,1.65,1.93.73,3.25-1.82,2.58.46,1.86,1.63,2.04-1.9,3.14-4.01,4.19-7.38,3.67-.6-.25-.48-2.02-1.83-.8-.72.65-1.27,1.43-1.91,2.14-.68.68-1.43,1.2-2.47.98-2.73-2.15-4.22-1.94-6.13.91,2.03.26,3.47-2.39,5.65-1.09.05,1.64-.8,3.28.49,4.92.82,1.04.12,1.77-1.21,1.77-.74,0-1.45-.37-2.25-.16.28.66.98.67,1.44,1.01,2.15,1.53,2.39,3.27.17,4.51-2.32,1.29-3.77,3.05-4.87,5.32-.44.89-1.32,1.4-2.14,1.91-1.03.64-1.94,1.45-2.26,2.64-.61,2.28-1.88,3.46-4.36,3.38-1.62-.05-2.82,1.18-3.84,2.19-2.71,2.68-6.1,4.37-9.08,6.63-1.11.84-2.37,1.5-2.88,2.93-.15.41-.48.94-.82.94-3.39-.04-5.24,3.03-8.17,3.97-3.07,1-5.83,2.7-8,5.15-.82.93-1.73,1.67-2.87,1.97-5.47,1.41-10.34,4.02-14.95,7.21-.82.57-1.81.64-2.78.72-3.34.28-5.83,2.13-7.76,4.64-2.36,3.07-4.24,3.84-7.98,2.68-.82-.25-1.59-.66-2.44-.82-1.23-.23-2.65-.81-2.11,1.54.12.51-.7.69-1.24.78-2.19-.38-3.79-1.34-3.87-3.84.48-1.86,1.77-.41,2.64-.56,1.77-.32,3.15-.48,1.64-2.73-.45-.67-.43-1.65-.79-2.41-.35-.75-1.23-1.42-.22-2.21,1.1-.86,2.4-.29,2.81.56,1.87,3.83,5.68,1.42,8.3,2.75.61.31,1.46-.35,1.59-1.23.17-1.09-.64-1.15-1.43-1.26-2.96-.4-5.35-.96-5.94-4.88-.44-2.91-6.04-5.32-9.19-4.95-1.27.15-2.57.12-3.86.12-.94,0-2.08-.51-1.82-1.38.84-2.85-1.19-3.74-2.92-4.96-1.14-.81-.84-1.43.29-2.13,2.77-1.72,5.62-.52,8.43-.36,2.27.13,4.97,1.03,3.38-3.04-.26-.67.28-1.16.75-1.17,3.61-.09,6.63-3.45,10.77-1.37,2.09,1.05,4.98.9,7.44-1.01-.99-.95-1.85-.63-2.73-.3-1.43.53-2.71.12-3.25-1.23-.6-1.5.83-2.06,1.85-2.51,3.22-1.43,6.4-3.11,10.14-2.48,2.49.42,3.93-.67,4.25-3.12.18-1.4.46-2.38,2.19-2.55.91-.09,2.28-.64,1.11-2.2-.64-.85.11-1.07.75-1.25,2.34-.64,3.37-2.64,4.48-4.47,3.4-5.61,6.86-11.19,11.09-16.21,1.82-2.16,1.59-4.96,3.08-7.11,2.91-4.19,5.23-8.73,7.85-13.08,1.33-2.2.8-5.19,3.16-6.84Z"/>
  <path class="st30" d="M504.4,895.12c2.07,1.48,5.55.76,6.41,4.26.15.62,1.34-.23,2.05-.26,1.35-.05,2.93-.65,3.96.59,1.02,1.22-1.05,1.96-.81,3.16-7.96,0-15.92.21-23.87-.04-7.69-.25-15.26-1.71-22.79-3.3-8.98-1.9-17.96-3.79-26.94-5.69-8.81-1.87-17.31-4.75-25.26-8.91-5.51-2.89-10.76-6.43-14.85-11.31-.61-.73-1.34-1-2.15-1.27-.61-.2-1.69-.42-1.72-.72-.42-4.07-5.26-4.37-6.4-7.39-1.1-2.92-3.68-4.58-5.54-6.19-1.83-1.58-2.29-3.82-4.04-5.12-4.46-3.33-5.43-8.62-7.43-13.28-2.37-5.51-4.07-11.28-4.7-17.26-.48-4.6,2.03-7.92,5.6-10.53,1.15.86,1.29,2.3,1.82,3.29,1.17,2.17,1.66,4.83,3.55,6.63.47.45,1.2.89,1.2,1.47-.04,3.25,2.47,4.29,4.71,5.45,2.86,1.49,4.47,3.92,5.62,6.75.37.91.7,1.82,1.5,2.44,1.34,1.04,2.19,1.95,1.45,4.01-.7,1.95,2.84,5.4,5.48,5.77,1.91.27,3.81.55,5.68,1.07,2.01.57,4.07.84,4.21,3.57.03.54.46,1.11,1.05,1.06,1.83-.16,2.08,1.44,3.01,2.37,4.55,4.52,7.11,11.28,14.24,12.93,2.33.54,1.8,3.89,3.9,4.14,1.93.23,3.46.91,5.21,1.6,4.87,1.91,8.67,6.56,14.55,5.95,1.15-.12,2.07.45,2.73,1.42.31.45.7.93,1.24.96,3.96.24,7.16,3.19,11.4,2.83,2.78-.24,5.43,1.16,7.51,3.22,2.12,2.09,4.78,3.29,7.6,2.83,3.32-.54,6.24.48,9.01,1.66,2,.85,3.6.55,5.4.07.48-.08.95-.07,1.43.01,1.69.49,3.65.26,4.99,1.75Z"/>
  <path class="st57" d="M590.27,582.73c-2.01-1.26-3.57-1.91-4.88,1.14-1.11,2.59-3.88,2.74-6.1.85-4.13-3.52-4.21-4.6-.63-8.45.34-1.11.69-2.16,1.5-3.11,1.53-1.79.93-3.17-1.49-3.7-1.44-.31-3,.15-4.38-.64-.18-.83-.32-1.76-1.54-1.27-3.56,1.41-7.14-.17-10.7.12-.77.06-1.55-.1-2.02-.73-1.26-1.7-3.31-2.24-4.91-3.44-.66-.78-.92-1.7-.81-2.7.14-1.25-.43-1.9-1.54-2.49-2.95-1.57-3.06-3.41-.54-5.67.3-.27,1.06-.46.89-.66-2.63-3.13.96-5.8.64-8.77-.08-.75,1.14-1.13,1.82-.89,1.45.52,3.52.7,3.91,2.31.41,1.69.75,1.81,2.5,2.03,1.79.22,3.62.7,5.5.83,1,.07,1.82.81,1.95,1.89.27,2.22,1.81,2.99,3.93,3.55-.26-1.97-1.43-3.06-2.69-4.2-1.84-1.67-1.61-2.54.64-3.31.25-.09.78.53.72-.21-.03-.36-.21-.86-.81-.74-.32.06-.63.17-.95.19-1.08.05-2.53.21-2.73-1.05-.28-1.81,1.5-1.35,2.53-1.62,1.01-.26,2-.8,3.1-.4-4.09-1.9-5.36-5.89-3.16-10.03-.84-.73-1.84-.32-2.78-.39-.98-.06-2.04-.06-2.45-1.16-.4-1.09-.15-2.15.73-2.95.84-.77,1.83-1.13,2.97-.66.8.33,1.4,1.03,2.25,1.25,1.21.32,2.36.08,3.35-.68.58-.45.63-1.13.26-1.74-.74-1.24-2.06-2.04-3.26-1.48-2.69,1.26-5.02.08-7.43-.59-2.39-.66-2.9-2.28-1.35-4.24.46-.58.38-1.2.54-1.8.37-1.43,1.16-2.45,2.75-1.92,1.81.6,0,1.8.38,2.98,2.42-1.96,5.23-.92,8.23-.95-.57-1.37-1.62-1.35-2.42-1.45-2.42-.29-3.54-2.3-5.07-3.73-.59-.55-.86-1.57-.15-2.35.48-.53,1.31-.57,1.79-.17,2.19,1.89,5.06,1.63,7.58,2.43,2.99.94,4.25,2.67,3.96,5.64-.05.49-.3.79.4.77.32-.01.75-.02.9-.26.44-.7-.48-.36-.58-.67-.85-2.5-.81-5.07-.38-7.6.35-2.05,2.21-1.63,3.65-1.79,1.98-.05,3.13,1.08,3.95,2.73.71,1.43,1.42,2.9,3.12,3.45,2.42,2.64,5.85,3.27,9,4.4,1.18.42,2.7.57,3.89-.56.78-.73,1.71-.73,2.6-.07,1.64.66,3.36.81,5.1.81,4.5,1.46,6.12,4.18,5.75,9.65-1.46,1.4-3.42,1.68-5.21,2.34-1.71.63-3.52.87-5.2,1.35-.54.9.26,1.2.59,1.68.31.45.63.88.37,1.46-.6,1.36-5.92,2-6.81.73-.63-.91-1.17-1.85-2.33-2.02-2.83-.42-5.55-1.24-8.7-2.37,1.73,1.38,5.68.08,3.73,4.09-.2.41.52,1.12.82,1.68,1.2,2.26,2.04,4.3,1.13,7.18-.82,2.58,1.32,5.02,2.89,7.15,3.5,4.74,6.65,9.67,8.84,15.16,0,.6-.11,1.19-.15,1.79-.07.85.17,1.71,0,2.54-.28,1.46-1.26,1.9-2.61,1.43-2.31-.79-5.87-7.85-5.21-10.26-.87-1.02-2.05.37-2.95-.37-.88-1.27-.89-2.82-1.36-4.22-.48-1.44-1.32-2.63-3.01-2.03-1.61.57-1.8,2.02-1.27,3.46,1.12,3.08,2.18,6.18,3.61,9.14-.49,1.11-1.88,1.89-1.1,3.47.27.54-.03,1.23-.37,1.79q-1.86,3.11,1.6,4.48c.29.12.59.23.86.39.91.86,1,1.69-.29,2.16-1.27.46-2.44,1.55-3.9,1.08-1.18-.39-.52.83-1.03.96Z"/>
  <path class="st45" d="M583.82,508.49c-.02.11-.02.21-.05.32-.44,1.81-2.61-1.35-2.79.93-.17,2.26-.12,4.54-.18,6.81,0,.38.12.54.55.53.58-.01,1.61-1.15,1.66.24.05,1.43-1.44,1.71-2.55,2.04-.99.29-2.22.01-2.57-.85-.62-1.5,1.67-.48,1.72-1.62q-2.09-.73-.74-2.73c-3.53-2.52-8.45-1.15-11.94-4.2,1.33,2.06,1.98,4.57,4.97,5.05,1.44.23,4.05.1,3.71,2.01-.38,2.12-2.95,1.37-4.4.86-2.57-.89-4.02.72-5.91,2.06-.92-1.61-1.19-2.96.85-4.07-1.84-.52-2.48.12-2.66,1.61-.11.93,1.12,2.84-1.52,2.27-.56-.12-.19.67.06.88.64.53.16,1.75,1.75,1.85,2.55.16,4.84,1.63,7.69.36,1.71-.76,3.37.74,4.12,2.69.36.94.39,1.79-.6,2.16-1.8.68-3.65,2.23-5.54.29-1.02-1.05-1.92-1.56-3.32-.66-.96.62-.76,1.53-.75,2.29.02,1.15,1.1.87,1.74.79,1.74-.22,3.42-.39,4.98,1.38-2.82.16-1.46,3.29-3.43,4.3,1.08,1.35,3.88,1.22,3.26,4.17-.18.84,2.29.75,3.47,1.54-2.6,0-4.92.97-7.97,1.24,2.29,1.69,3.83.7,5.31-.14,1.11.82-.58,1.22-.14,1.96.81,1.35.76,1.47-.51,1.31-.78-.1-1.6-.38-1.96.47-.39.92.51,1.54,1.13,1.62,2.34.33,1.76,3.08,3.46,3.93.64.32.24.93-.15,1.34-.55.56-1.39,1.15-1.95.48-1.25-1.51-4.53-1.06-3.92-4.57.23-1.31-1.75-1.82-3.28-1.08-.92.45-1.89,1.25-2.42-.58-.39-1.33-1.21-.75-1.93-.11-1.35,1.22-2.73.4-2.27-.86,1.02-2.78-1.55-2.72-2.54-3.65-.73-.68-1.87-.31-2.29,1.43-.39,1.64,1.62,3.82-1.34,5.2-.96.44.96,1.83,2.33,2.37-2.23-.52-2.39,1.7-3.59,2.55-.64.46-.55,2.49.61,2.58,3.39.28,3.51,2.28,3.15,4.83-.06.39.17.83.27,1.25-1.32.51-2.64-.08-3.08-1.03-1.44-3.1-4.84-5.62-2.85-9.86.63-1.34-.05-3.21-.4-4.67-.59-2.47-.32-4.77-.14-7.2.17-2.38.85-4.04,3.06-5.12,1.63-.79,2.7-1.84,0-2.86-1.08-.41-1.65-1.68-2.84-2.01-2.8-.86-1.18-3.06-1.43-4.7-.23-.73-.47-1.47-.7-2.2-.39-2.48-3.28-2.56-4.27-4.46-6.07-4.53-7.73-10.96-7.56-18.06.07-3.05,1.75-5.8,2.17-8.83.53-1.63,1.67-2.81,2.88-3.94q3.02.84,3.15-2.61c.02-.43.09-.85.38-1.19.23-.18.47-.36.7-.54,2-.13,3.4.38,4.23,2.55.87,2.28,3.48,3.47,5.33,4.14,4.3,1.56,8.5,3.45,12.92,4.69.24.07.44.84.67.22,1.19-3.12,3.33-1.97,5.11-.99,2.3,1.27,1.86,3.07.07,4.82,2.16-.27,4.05-.38,3.03-3.28-.34-.96.16-2.32,1.27-2.68,1.37-.44,2.04.9,2.16,1.84.39,2.97,2.84,5,3.34,7.86.15.83.92.77,1.37,1.15,1.7,1.45,1.81,2.81-.14,4.11Z"/>
  <path class="st60" d="M494.2,680.76c1.31,3.79.29,6.98-2.08,10.13-5.83,7.76-11.63,15.58-15.62,24.51-1.36,3.05-3.65,5.48-5.09,8.51-1.22,2.56-3.73.88-5.7.78-.22-1.28-.44-2.57-.67-3.85.45-.7.41-1.47.11-2.17-2.81-6.31-3.76-13.19-5.96-19.64-1.2-3.52-.11-7.47-2.67-10.68-1.03-1.29-.33-3.16.92-4.41.95-.95.72-1.63.15-2.78-1.42-2.9-3.29-5.67-3.35-9.1-.02-1.18-1.14-1.44-2.04-1.78-.59-.21-1.13-.49-1.51-1.01-.11-.51.12-.89.46-1.22,2.02-1.4,4.43-1.69,6.73-1.86,1.85-.14,2.91-.76,3.45-2.44.45-.2.92-.23,1.4-.17,4.34-.18,8.7.46,13.03-.62,3.96-.99,8.09-.38,12.13-.75,1.36-.12,2.16.75,2.73,2.2,2.55,6.5,2.9,13.28,3.19,19.66.2-.78-.56-2.16.38-3.32Z"/>
  <path class="st32" d="M606.46,568.48c0-.51.09-.98.6-1.25,2.26-1.91,5.09-2.7,7.73-3.85,3.64,3.3,7.39,6.5,10.89,9.94,2.31,2.27,4.98,4.04,7.46,6.07,1.67,1.37,2.87.64,4.05-.82,3.24-4.04,4.64-8.95,6.58-13.6,2.49-5.97,4.37-12.17,5.9-18.43,1.14-4.65,2.71-9.1,4.53-13.49,1.41.28,2.77-.18,4.15-.23,1.25-.04,2.86-.29,3.52,1,.66,1.31-.34,2.61-1.34,3.34-1.41,1.02-.67,1.59.12,2.32-.88,8.61-1.15,17.25-2.31,25.85-.72,5.37-.63,10.89-1.61,16.26-.95,5.18-1.58,10.35-5.93,14.35-4.73,4.35-9.85,3.87-15.3,2.6-5.66-1.32-10.34-4.3-14.72-8.11-4.44-3.86-8.2-8.25-11.84-12.8-.48-1.61-1.8-2.65-2.71-3.97.73-1.7,2.22-3.37.22-5.19Z"/>
  <path class="st54" d="M453.33,696.94c-5.53,15.26-13.9,28.93-23.48,41.91-1.77,2.4-2.87,5.28-5.25,7.23-1.45,1.69-2.58-.5-4.5-.41,2.9,4.16-.73,6.48-2.17,9.44v.03c-2.47.84-4.84.86-7.21-.52-1.58-.92-1.88-2.09-.34-3.05,1.24-.78,2.67-1.79,4.2-1.19,1.63.64,1.73-.72,2.36-1.35-.32.2.19-.16-.07-.08-3.24.97-6.39,1.9-7.12-3.01-.03-.2.07-.42.1-.63.11-.76.1-1.54-.37-2.17-.74-1-1.1-1.97.33-2.59,1.11-.48,2.11-.24,2.68.98.26.57.37,1.28,1.45,1.38.52-1.31.73-2.81-.12-3.93-1.01-1.35-.36-1.97.61-2.56,1.15-.7,2.36-.68,3,.69.47,1,1,1.89,1.81,2.46.39.39.49-.23.25.13-.04.05-.11-.02-.28-.16-.41-.35-1.12-.76-1.05-1.16.5-2.91-1.69-5.17-1.77-7.92,0-.21.15-.46.04-.63-2.14-3.25-1.8-5.6,2.34-6.67.38-.1.59-.7.55-1.11-.34-3.12,1.77-6.14.42-9.27-.51-1.18.27-1.82.81-2.57,1.15-1.6,1.58-3.22.65-5.11-.8-1.61-.59-3.12.82-4.38.39-.35,1.06-.73.91-1.25-.79-2.61.86-3.65,3.34-4.71-4.55.01-2.79-2.39-2.32-4.29,1.42-3.22,4.28-4.7,7.42-5.28,1.86-.35,3.64-1.41,4.08-2.5.76-1.86,2.11-1.61,3.05-1.43,2.29.42,4.35.43,6.37-.86.52-.33,1.25-.15,1.86.15,1.46,1.25,1.95,3.03,2.33,4.76.9,4.09,1.27,8.34,4.26,11.65Z"/>
  <path class="st10" d="M437.14,469.72c-.15-3.49,1.81-5.89,3.96-8.38,3.25-3.74,6.55-7.34,11.01-9.67,1.55.92,1.76,2.21.85,3.88,4.25-.49,7.78.86,10.93,3.21,2.85,2.14,6.89,2.6,8.73,6.18.14.27.58.52.83.39,2.99-1.59,6.41.96,9.34-.98,1.86-1.23,2.67.69,3.84,1.34,1.4.77.26,1.58-.2,2.34,0,1.44-.02,2.89-.03,4.33.01,1.24-.98.92-1.59.91-2.85-.08-5.75.27-8.53-.57-2.37-.71-4.61.23-6.91.22-2.56,0-3,2.08-3.62,3.85-.92,2.61-2.31,4.74-4.67,6.3-3.46,2.3-3.41,2.37-2.01,6.24.31,1.71-.55,3.08-1.31,4.47-1.66,3.11-5.14,2.06-7.64,3.37,1.99.04,1.88,1.53,1.91,2.83.03,1.23-.84,2.5-1.84,2.13-2.29-.86-2.38,1.08-3.27,2.04-1.63.01-1.67-1.34-2.08-2.4-1.33-3.45-2.63-6.91-4.01-10.33-2.8-6.91-3.99-14.19-3.69-21.68Z"/>
  <path class="st47" d="M457.28,493.65c.31-1.55,1.51-2.85,1.25-4.56-1.23-4.08-1.28-4.17,2.2-5.97,2.63-1.37,3.67-3.76,4.63-6.27.71-1.86,1.11-3.95,3.45-4.59,5.87-1.92,11.72,1.25,17.58.09,1.46,7.62,2.64,15.02.4,22.96-1.81,6.43-4.88,11.31-9.93,15.25-4.33,3.38-9.18,3.73-14.3,2.38-1.01-.26-1.53-1.08-2.09-1.89-.79-1.13-1.51-2.39-3.13-2.5,2.19-3.97-.99-7.8-.35-11.75.16-1.02-.22-2.13.29-3.15Z"/>
  <path class="st69" d="M497.98,893.84c-2.96,2.6-5.66.18-8.3-.65-1.43-.45-2.59-.96-4.21-.76-3.95.47-7.61-.14-10.47-3.48-1.06-1.24-2.83-2.27-4.49-2.14-5.06.41-9.27-3-14.21-2.91-.27,0-.73-.2-.78-.38-.96-4.11-4.49-2.48-6.8-2.67-2.96-.25-4.16-2.77-6.46-3.78-1.15-.5-2.07-1.39-3.47-1.31-.81.04-1.94.51-1.58-1.38.11-.54-2.16-1.38-3.46-.52-1.53,1.02-2.78-.16-2.63-1.04.57-3.21-2.06-3.4-3.72-4.15-2.78-1.27-5.15-3.05-7.53-4.86-.42-.32-1.08-.83-1.03-1.17.41-2.96-1.81-4.19-3.69-5.46-1.29-.87-1.17-3.94-3.92-2.63-.09.04-.6-.41-.63-.66-.55-6.07-5.79-4.28-9.17-5.26-2.4-.69-6.82-4-7.12-6.47-.74-6.04-4.14-10.62-9.65-13.8-1.25-.72-3.97-1.38-2.52-4.14.09-.18-.14-.76-.34-.83-3.08-1.09-2.23-4.84-4.56-6.62-1.24-.94.23-3.51-1.35-4.88,2.54.27,4.06,2.01,5.09,4.02.63,1.22,1.21,2.44,2.04,3.52,2.77,4.32,5.83,8.41,9.62,11.91.45.4.89.79,1.34,1.19.97,1.46,2,2.84,3.85,3.25,3.9,1.25,6.66,4.22,9.83,6.55,6.17,4.53,12.01,9.47,18.07,14.13,1.11.85,2.28,1.63,2.87,2.99.22.5.54,1.08,1.04,1.18,5.44,1.05,8.49,6.01,13.39,8.03,15.68,6.45,30.61,14.65,46.78,19.93,1.52.49,3.06,1.01,4.38,1.98-.92,1.66.18,1.75,1.4,1.92.92.13,1.83.47,2.35,1.37Z"/>
  <path class="st42" d="M424.35,690.54c1.03,1.25-1,2.04-.44,3.37,3.13-2.46,2.06,1.38,3.72,2.05-4.08.2-4.17.26-3.28,3.39.26.92-.39.75-.77.98-2.19,1.35-2.68,3.12-1.33,5.35.79,1.31.89,2.4-.24,3.76-.92,1.11-3.07,2.54-.46,4.25.15.1.18.68.04.9-1.62,2.75-.93,5.84-1.32,8.77-.12.92-.66,1.36-1.56,1.09-1.39-.42-2.37.12-2.87,1.33-.52,1.28.44,2.22,1.13,3.14.23.31.72.42,1.09.63-2.94,2.6,3.41,4.58.43,7.52-.98.97,2.1,1.9,1.83,3.96-1.32-.94-2.67-1.51-3.15-3.21-.58-2.05-1.86-1.19-3-.53-.41.24-.6.6-.27,1.06l1.82,4.33c-.05.94-.68,1.27-1.49,1.38-1.18.16-2.34-.07-2.4-1.43-.06-1.15-.08-1.94-1.49-1.68-.3.05-.84.35-.83.37.5,1.42,1.99,2.66,1.28,4.29-1.1,2.5-.27,2.58,2.11,2.84,1.95.21,3.52,1.2,4.4-2.03.59,2.14-.68,3.23-.55,4.59.1,1.06-.78,1.44-1.4.73-2.04-2.32-3.3.72-5,.62-.14,0-.53.76-.45,1.08.21.82.65.42,1.15.13.79-.45,1.14.37,1.54.78.92.93,1.72,1.59,2.88.27,1.02-1.16,1.54.81,2.46.52-.41,1.6-1.45,2.78-2.59,3.89-2.69,2.62-6.4,1.01-9.46,2.27-.89.37-1.72-.56-1.98-1.6-.03-.29-.02-.57,0-.85-.03-.46-.29-1-.67-.97-4.04.38-4.81-2.83-6.09-5.48-.45-.92.24-1.35.86-1.79,1.62-1.14,3.17-2.27,1.64-4.6-.31-.47-.35-1.31.11-1.83,1.63-1.86.34-3-.95-4.16-.71-.89-.24-1.41.63-1.58.81-.15.98-.49.94-1.27-.12-2.19-.07-2.2,2.24-1.38-.63-2.62.16-5.12.97-7.55.57-1.73,2.43-1.42,3.89-1.87-.4-1.59-2.66-2.78-1.21-4.91.18-.27-1.05-.49-1.4-1.04-.16-.27-.24-.56-.23-.87.04-.22.14-.4.27-.57.86-1.04,2.86.58,3.25-1.27.43-2.04,1.83-3.86,1.4-6.07-.21-1.12-.27-2.22.68-2.95,2.48-1.91,2.8-4.56,3.02-7.41.22-2.92,1.29-3.47,4.08-2.76-.63-1.31-3.52-1.42-2.65-3.46.61-1.44,2.14-3.1,4.41-2.16,2.43.19,2.78-3.05,5.07-3.07.08,0,.17.11.23.18.12.14.1.32-.06.52Z"/>
  <path class="st25" d="M740.68,702.15c-1.62-.08-3.09.31-4.78-.89-2.22-1.57-2.33,1.19-3.02,2.39-.71,1.24-1.1,2.46,1.07,2.7,1.18.13,2.2.7,3.19,1.39,2.59,1.8,3.02,3.56,1.19,5.96-.45.59-1.16.78-1.43-.16-.3-1.06-1.23-1.39-1.88-2.06-2.07-2.13-3.99-2.71-6.04-.03-.21.27-.79.26-1.19.38-1.08-4.64-2.46-9.24-3.16-13.94-.77-5.17-2.63-10.05-3.59-15.18-.37-2.01-2.44-4.13-3.11-6.39-1.11-3.73-3.71-6.65-5-10.25-.32-.91-.95-1.61-1.69-2.29-1.44-1.33-2.46-2.94-2.21-5.09.21-1.8-.42-3.2-2.34-3.67-1.84-.45-2.99-1.71-4.37-2.93-1.98-1.76-3.79-3.09-2.51-6.1.4-.94-.57-1.14-1.35-1.33-1.96-.48-3.9-1.03-6-1.6,3.81-2.17,6.26-1.82,8.93,1.2.44.5.85.96,1.54,1.04,3.84.47,6.29,3.32,8.69,5.74,7.1,7.16,13.01,15.37,17.8,24.19,4.64,8.54,9.69,17.04,11.22,26.92Z"/>
  <path class="st0" d="M404.44,758.92c-.02,1.11.85,2.38,1.57,1.78,2.69-2.2,6.38.59,8.86-2.01.02-.02.32.22.48.34-12.04,15.51-25.25,29.91-40.31,42.57-4.31,3.62-8.21,7.74-13.32,10.3-.59-1.12.09-2.04.47-3.02,1.64-4.21,3.01-8.53,4.52-12.76.77-2.16.81-4.17,1.14-6.25,1.71-2.07,4.61-2.91,5.64-5.78.34-.96,1.84-1,2.91-.47,2.17,1.06,4.32.47,5.61-1.11,1.95-2.38,5.52-3.03,6.53-6.31.09-.3.44-.6.75-.46,2.71,1.17,3.27-1.75,5.05-2.48-2.83-1.73-2.86-2.85-.43-6.88.13-.21,1.6-.2.29-1.01-2-1.23-1.26-3.34-.91-4.9.81-3.64,1.56-7.26,2.14-10.95.25-1.57.84-3.85,2.7-4.97.11-.07.1-.08.07-.13q-2.01-2.91.96-4.82c2.64.88,3.05,2.38,1.42,4.63-.77,1.06.12,2.74,2.66,4.93-3.44-1.27-3.24,2.91-6.06,2.61,1.1,1.12,4.3.95,1.82,3.51-.19.19,1.75,1.9,2.9,1.51,1.52-.52,2.13.7,3.09,1.13.53.24-.23.79-.55,1.02-2.07-.33-3.82-.13-5.42-.86,1.65.97,3.49.87,5.42.86Z"/>
  <path class="st29" d="M614.79,563.38c-1.93,2.59-4.96,2.96-7.73,3.85-3.42-5.22-5.59-11.14-10.09-15.85-1.54-1.62-3.74-5.18-1.79-8.87,1.3-2.46-1.58-4.3-2.38-6.49-.16-.43-.95-.51-.91-1.18.48-.89,1.47.52,1.97-.48-1.05-2.54-4.81,0-5.76-3.2,2.06.21,4.11-.56,5.74,1.19.63.68,1.5.06,2.04.25,2.05.7,5.2-.45,5.73,3.17.05.32,1.2,2.29,2.09-.07.6-1.6,2.45-.21,3.72-.39-.15-1.2-1.15-1.16-1.61-1.7-.99-1.16-1.06-2.39.7-2.43,3.83-.08,7.12-2.11,10.79-2.68-.71,2.87-1.93,5.37-4.44,7.17-3.12,2.24-2.99,3.6.38,5.51,8.4,4.75,8.63,13.54,3.82,19.87-.71.93-3.27.02-2.27,2.34Z"/>
  <path class="st61" d="M399.17,739.58c-1.39,1.76-2.25,3.51-.12,5.38.14.12-.12.69-.19,1.05-.52-.14-.31-1.1-1.32-.93-.22,1.24,1.9,3.73-1.48,3.65-.06,0-.19.15-.18.18,1.73,4.84-1.81,9.02-1.82,13.81,0,2.79,1.44,1.99,2.52,3.03-4.07-.06-1.05,4.84-4.46,5.5,1.44.17,2.96.12,3.25,1.5.18.85-1.44,1.39-1.69,1.77-1.18,1.86-1.96,3.64-4.74,1.7.43,2.1.32,3.57-2.54,3.42-.96-.05-1.99,1.83-3.02,2.79-2.13,1.99-4.26,3.64-7.42,1.77-1.14-.67-2.33-.34-2.17,1.53.08.89-2.02,2.46-3.94,3.23-.58.23-1.09.65-1.63.98-.78.13-1.5-.01-2.14-.5-.62-.87-1.35-1.07-2.43-.76-1.69.48-3.3.24-4.44-1.33,1.48-2.59,2.97-5.18,4.46-7.77,1.08-1.68,2.74-.41,4.07-.79.28-.03.53.05.75.2,1.7.5,1.6-1.4,2.56-1.93,1.09-.59,2.22-.72,3.43-.83-.56-1.01-2.41-1.94-.82-3.21,1.22-.98,2.45-.09,3.21,1.11.67,1.07,1.69,2.07,2.78,1.75.86-.25,1.05-1.69,1.3-2.76.44-1.92,2.12-3.34,2-5.62-.06-1.32.93-2.52-.64-3.76-.75-.59.04-1.83.79-2.49.7-.63,1.3-1.8,2.28-1.59,1.28.29,1.02,1.66,1.11,2.33,1.67-2.17.57-4.66-.02-7.2-.48-2.06-.34-3.8,2.59-3.97,1.98-.12,2.79-2.72,1.57-4.3-.62-.81.68-4.5,1.63-4.29,2.83.64,2.11-2.07,2.15-2.68.23-3.27,1.49-5.58,4.28-7.4,1.48-.96,1.96-2.97,2.51-4.69.74-2.31,1.98-4.42,2.57-6.8.12-.5.68-.81,1.3-.48.79.3,1.68.47,2.33.95.67.5,1.03,1.15-.47,1.06-1.2-.07-.46.84-.27,1.16.74,1.22,1.59,2.38,2.48,3.68-.31.14-.69.48-1.03.45-3.58-.31-4.11.22-3.78,3.83.09.99-2.03.93-1.1,2.57.42.73-.18,2.04-.33,3.2-.67-.75-1.1-1.75-2.3-1.33.91.87,0,2.6,1.79,3.07-1.25.94-2.24-.38-3.2.19-.08.05-.15.18-.15.26,0,.09.1.18.16.27Z"/>
  <path class="st35" d="M405.03,720.2c-1.95.46-.69,2.17-1.12,3.23-1.11,2.7-2.83,5.21-3.1,8.27-.07.79-1.76.66-1.75,1.88-2.55-.98-1.56,2.72-3.46,2.61.87,2.91-2.16,5.08-1.28,7.99-1.47.22-.6-1.73-2.3-1.28-.64.37,1.24,3.2-1.75,2.21.53,1.21,1.23,1.31,2.01,1.16.51-.09,1.09.22.9.54-.64,1.11-2.16,2.13-2.12,3.13.09,2.25-.81,2.28-2.41,1.77-1.78-.56-1.62.78-1.73,1.79-.14,1.26.74,2.21,1.1,3.32.81,2.51-.68,4.49-1.51,6.63-.36-1.1-.72-2.21-1.2-3.7-.36,1.96-3.23,1.81-2.53,3.88.31.93,1.16-.59,1.88-.3.22,2.13-1.65,4.01-.72,6.22.03.08-.02.23-.08.3-1.72,2.15-2.56,4.63-3.33,7.26-.21.73-3.31-.73-4.08-2.15-.77-1.42-1.39-1.91-2.85-1.53.02.37-.04.63.06.78,1.86,2.64,1.88,2.71-1.06,3.07-1.28.16-1.81.71-2.06,1.9-.25,1.19-1.59.4-2.19,1.04-.05-.42-.1-.84-.16-1.26.06-.09.14-.16.17-.26.34-1.04,2.55-2.39-.46-2.57.16.71,1.38,1.65.24,2.79-.83-.25-.35,2.97-1.93.73-.84-1.19-1.73.12-2.59-.07,1.91-5.86,5.59-10.79,8.56-16.08,8.72-15.53,18.5-30.39,28.35-45.21,1.89-1,3.14.06,4.34,1.32.03.2.08.4.13.59Z"/>
  <path class="st49" d="M356.39,468.31c.92,9.7-2.31,18.5-4.76,27.43-.43,1.55-1.7,3.32-1.28,4.56,1.67,4.99-2.45,4.61-4.87,5.47-2.69.96-5.82-.63-6.75-3.46-3.03-9.3-4.78-18.48,2.61-26.9,2.6-2.96,4.53-6.5,6.93-9.64,1.34-1.76,2.9-3.96,5.5-2.93,2.34.92,2.92,3.21,2.63,5.48Z"/>
  <path class="st51" d="M545.09,576.26c1.45,3.93-.71,7.19-2.3,10.37-.58,1.17-1.72,2.39-2.78,3.45-2.19,2.17-4.48,1.88-5.8-.93-3.07-6.53-4.63-13.47-5.3-20.63-.02-3.45-.05-6.9-.07-10.35-.73-2.35-.78-4.7.03-7.05.25-2.59.5-5.18.75-7.76.6-1.51,1.2-3.01,1.79-4.52.67-.7,1.79-1.21,1.81.1.09,4.16,3.3,6.99,4.19,10.86.92,4,2.19,7.98,3.54,11.89,1.57,4.3,3.09,8.62,3.49,13.23.05.54.08,1.07.66,1.34Z"/>
  <path class="st21" d="M660.65,539.47c-1.21-.12-2.19-.67-3.42-1.88,2.62,0,3.65-1.45,4.35-3.64-1.67-.27-3.11-.82-4.76.13-1.05.6-2.06.1-2.63-1.04,1.2-3.5,3.28-6.5,5.88-9,4.71-4.52,10.57-3.92,16.02-2.18,8.75,2.79,15.87,8.59,23.17,13.95.71.52,1.93,1.2,1.53,2.21-.51,1.32-1.68.21-2.55.18-4.71-.18-9.44.48-14.12-.59-3.24-.74-6.58-1.21-9.35-3.17-1.73-1.23-2.56-.55-3.11,1.03-1.23,3.5-3.62,4.38-7.06,3.54-1.28-.31-2.76-.68-3.97.46Z"/>
  <path class="st41" d="M720.07,742.19c2.67,1.53,3.79-.77,4.85-2.28,3.29-4.68,5.39-9.96,6.86-15.46.6-2.24,1.2-4.04,4.12-3.72.98.11,2.61-.73,2.71.52.1,1.22,2.34,2.19.27,3.9-1.76,1.45.75,1.22,1.26,1.81-.97,2.04-3.56,2.91-3.96,5.32-.61,3.73-.56,3.74,2.24,5.95-.18.68-.85.48-1.25.72-1.21.74-3.94-1.91-3.86,1.87.03,1.58-2.72,2.67-1.11,4.82.81,1.07-.36,1.22-.94,1.5-2.19,1.05-3.52,2.26-3.52,5.18,0,1.85-2.31,3.37-4.59,2.56-2.63-.93-3.28-.01-3.16,2.44.12,2.36-.4,3.08-3.34,2.63-2.1-.32-4.93.55-7.25,1.29-2.38.77-4.24-.09-6.38-.46-3.06-.52-6.24-.36-9.36-.58-2.32-.16-4.41-.66-3.32-3.83,3.87-.32,7.64.98,11.52.66,1.46-.12,2.62-.39,3.75-1.42,3.16-2.88,6.32-5.82,9.77-8.32,1.98-1.44,3.09-3.43,4.67-5.11Z"/>
  <path class="st28" d="M486.42,468.01c-.26-.59,1.4-1.71-.44-1.83-1.08-.07-1.15-2.06-2.79-1.12-1.7.98-3.57,1.9-5.63.43-.85-.61-1.83-.17-2.66.46-1.09.82-2.39.89-3.15-.22-3.12-4.55-8.16-6-12.69-8.38-2.65-1.39-5.18-1.12-8.8-.7,2.54-1.59,3.11-3.12,1.85-4.99,9.31-5.57,24.79-7.03,34.43.76,5.46,4.41,5.53,12.32-.12,15.58Z"/>
  <path class="st33" d="M583.82,508.49c.83-1.78,1.32-3.36-1.38-4.04-.86-.22-2.3-1-.18-1.82.02,0-.05-.51-.15-.54-4.07-1.31-2.06-6.06-4.85-8.4.03,1.32-2.2,2.47.25,3.69.13.06-.63,2.51-2.3,2.68-.96.1-1.93.02-2.9.02.53-3.98.22-5.4-1.19-5.49-2.41-.15-3.31.91-2.34,3.35-1.7.08-2.12-3.74-4.14-1.03-2.61-4.4-7.81-3.2-11.41-5.33-1.76-1.04-2.92-3.1-5.27-3.35-.16-.02-.45-.35-.42-.42,1.49-3.34-2.18-2.41-3.09-3.75,2.1-2.25,4.46-4.1,7.56-4.79,4.89-1.9,8.6,1,11.63,3.82,1.4,1.3,2.22.92,3.44,1.04,2.77.28,4.72,2.33,7.45,3.42-1.19-1.39-2.38-2.49-3.37-3.75-.53-.68-1.31-1.47-2.13-1.26-4.61,1.17-2.96-2.31-3.31-4.31,7.61.92,12.29,5.38,14.88,12.34,1.98,5.3,3.92,10.62,5.88,15.93,1.05,2.84,2.7,5.34,4.47,7.76-2.06.61-2.75-.95-3.27-2.33-.72-1.9-1.96-2.99-3.87-3.44Z"/>
  <path class="st6" d="M421.11,580.79c.15-.27.35-1.15.56-.56.79,2.25,4.11,2.13,4.31,5.07.07.95,1.98,1.07,2.79-.21.9-1.4.94-1.72,1.85.18.42.89,2.23,2.35,4.02,2.75,1.13.25,2.56.54,2.13,2.52-.28,1.28.81,1.25,1.72.91.62-.23,1.33-.5,1.73.19.4.68-.12,1.15-.68,1.57-1.13.85-1.39,1.99-.48,3.06.74.88,1.35,1.4,2.94.5,1.72-.97,2.59,2.13,4.87,2.27-3.85,1.56-4.15,3.18-.82,5.13.71.42.62,1.16.56,1.99-.1,1.37.15,2.76,1.52,3.62.87.55,2.15,1.03,1.67,2.37-.41,1.15-1.82.98-2.77,1.4-.83.36-1.66-.06-2.49-.32-.84-.27-2.36-.12-2.22.54.78,3.69-3.21,3.25-4.3,5.25-.33.61-1.08,1.04-1.71,1.43-.73.45,1.12,1.71-.68,1.81-1.74.1-.68-1.82-1.72-2.15,4.62-6.55-.52-11.48-2.97-16.69-3.5-7.45-6.89-14.94-9.83-22.63Z"/>
  <path class="st43" d="M590.92,873.84c.13-.4.22-1.13.4-1.15,3.78-.48,7.42-2.97,11.27-1.46,1.89.74,2.86.42,2.99-1.22.17-2.15,3.4-1.62,2.93-3.2-.41-1.38-2.95-.55-4.12-1.8-.8-.86-1.98-1.75-1.4-2.96.43-.9,1.79-.56,2.67-.32,1.26.35,2.5.54,3.8.53.92,0,1.98.28,1.86,1.32-.32,2.85,1.58,2.39,3.29,2.57,2.86.31,5.71.77,8.54,1.28.92.17,2.12.45,2.59,1.11,1.74,2.46,3.3,2.91,5.46.43,1.21-1.38,2.83.01,4.28,0,2.54-.02,5.03.33,7.55,1.68-3.74,1.19-9.8-.78-8.88,6.43-1.74,1.52-4.04.94-5.8.79-4.09-.35-8.22-.04-12.27-.77-8.48-.38-16.87-1.53-25.18-3.25Z"/>
  <path class="st61" d="M404.9,719.61c-1.45-.44-2.89-.88-4.34-1.32,3.8-7.42,7.93-14.68,11.27-22.29,2.52-5.73,4.03-11.9,6.01-17.87.36-1.09.8-2.16,1.21-3.24,1.05-1.33,2.54-2.43,2.48-4.37-.03-1.06.62-1.77,1.13-2.57.88-1.41,1.56-1.06,2.32.14.33.51-.29,1.9.96,1.5,1.97-.63,3.16.8,4.71,1.33,2.43.83,2.71,2.75,2.92,4.82-1.01,1.85-1.82,3.8-4.69,2.81-.87-.3-2.06.39-2.97,1,1.1,2.06.31,5.73-1.75,6.92-1.18.68-1.34,1.82-2.02,2.61-1.24,1.45-1.26,3.6-2.95,4.69-2.34-2.1-2.13,2.89-4.48,1.33,2.35.61,2.21,3.37,4.2,4.04-.5.03-1.07.23-1.5.08-3.07-1.12-3.21.31-3.27,2.95-.04,1.99.31,4.63-2.25,5.92-2.38,1.2-1.31,3.6-1.55,5.4-.25,1.89-1.68,3.38-1.44,5.44.07.58-1.32,1.34-2.36.56-.6-.45-1.14-.56-1.63.14Z"/>
  <path class="st64" d="M433.43,675.6c.15-.79-3-.29-.75-1.93.35-.25.07-.62-.22-.68-2.38-.47-3.65-4.26-6.9-2.28-.51.31-1.47.24-1.12-1.01.23-.81.07-1.62-.74-2.14.37,1.41-2.08,1.4-1.41,3.22.94,2.57-2.36,3.07-2.95,5-.1-.3-.2-.6-.3-.91.83-4.43,2.29-8.59,5.38-12,5,1.19,10.02,2.3,15,3.61,2.21.58,4.13-.8,6.24-.53,2.06.59,2.87,3.13,5.18,3.34.54-.07,1.02,0,1.29.56.42,1.29-2.36,2.35-.1,3.95,1.17.83.76,2.87,2.29,4.03,2.76,2.08,2.94,6.1.71,8.54-.76.83-1.1,1.57-.31,2.52.07.08.2.18.19.25-.42,2.91.7,5,3.09,6.7.66.47,1.05,1.96-.66,2.32-1.07-1.31-2.16-2.55-4.03-1.21-3.41-1.63-4.06-4.83-4.45-8.09-.34-2.86-1.17-5.54-2.5-8.08-2.19-1.55-1.25-3.26.03-5.22-3.98-1.07-7.66-2.49-11.48-.13-.45.28-.96.48-1.5.17Z"/>
  <path class="st17" d="M359.19,787.36c1.62.39,3.1,1.32,4.94.22,1.34-.8,2.21.08,2.08,1.68-.39.97-1.3,1.39-2.08,1.93-.76.53-1.4,1.11-.84,2.11,1.32,2.36.31,4.32-1.04,6.19-.49.68-.89,1.47-.39,2.05,2.48,2.82.15,4.91-1.39,6.5-2.09,2.18-1.31,3.83-.09,5.76-.13,1.53-1.14,2.64-1.88,3.88-.69-.36-3.77.9-3.53,1.44.9,2.03-.44,3.02-1.88,3.23-1.84.27-1.51-1.64-1.87-2.78-.1-.31-.17-.62-.52-.73-.61-.03-.94.41-1.35.76-2.11,1.82-2.93,1.8-3.92-.76-.63-1.62-1.37-3.47-.16-5.43.86-1.39,2.22-3.09.28-4.79,3.05-4.62,6.14-9.23,9.15-13.88,1.57-2.42,3.01-4.92,4.51-7.39Z"/>
  <path class="st7" d="M461.39,525.88c1.65.59,2.58,1.92,2.06,3.46-.64,1.9-2.29.83-3.6.6-6.18-1.09-11.65-4.21-17.55-6.1-1.32-.42-2.13-1.46-1.7-3.03,1.71-1.01,1.35-2.91,1.52-4.34.43-3.46,1.39-4.54,4.81-4.06,4.12.58,8.24,1.18,11.96,3.25.91.5,1.93.78,2.91,1.17.93,1.09,3.73.41,3.28,2.13-.5,1.93-2.82.76-4.22.54-1.7-.26-3.26,1.18-4.62.37,3.01.57,2.13,5,5.14,6.02Z"/>
  <path class="st56" d="M352.66,509.11c-2.38,2.07-2.93,5.11-4.17,7.79-.48,1.04-.2,2.03.44,2.69,1.63,1.72,1.65,4.12,2.82,6.03.52.86.8,2.22-1.22,1.85-1.31-.24-1.64.83-2.24,1.77-1.34,2.1-1.01,3.84.15,5.93.76,1.36-.47,1.49-1.56,1.09-3.15-5.42-6.13-10.93-7.54-17.12-1.17-5.12.66-8.12,5.79-9.54,1.64-.45,3.29-.87,4.89-1.44,1.22-.43,2.07-.23,2.65.94Z"/>
  <path class="st55" d="M345.53,808.63c.85.73,1.49-.46,2.48-.22-.96,3.96-4.4,7.78-.64,12,1.82.09,1.27-3.96,4.04-2.69,2.01.92-.31,3.25,1.66,4.29.25-.89,3.15-1.05.54-2.91-.33-.23.05-1.76.94-1.34,1.07.51,1.26-.44,1.86-.57,1.15-.25-.2-2.36,1.43-1.89,1.2.34-.65,1.85.64,2.38-3.06,4.67-5.53,9.93-11.55,11.68-2.03.46-4,.54-5.8-.75-2.27-4.6-2.26-9.28.02-13.79,1.13-2.23,2.24-4.62,4.38-6.2Z"/>
  <path class="st19" d="M568.35,600.76c1.59.76,2.93,1.16,4.3-.68,3.23-4.35,7.87-3.76,12.44-3.14,1.28,3.97,1.48,7.66-2.59,10.28-1.12-.06-2.2.24-2.98.96-2.83,2.59-6.36,3.11-9.93,3.57-.81-3.62-1.83-7.21-1.25-10.99Z"/>
  <path class="st50" d="M457.36,698.16c1.28-1.52-.04-2.25-.93-3.14-.93-.93-1.86-1.48-3.21-.07,1.63-1.48-.18-3.74,1.66-4.88-.18-.24-.31-.59-.55-.69-2.96-1.26-.71-2.63.04-3.75.42-.62,2.37-.31,1.66-1.68-.96-1.85.5-4.7-2.17-5.68-1.63-.6-2.23-1.41-1.88-3.08.07-.36-.15-1.05-.42-1.16-5.31-2.18.42-2.81.58-4.2,2.69.07,3.59,1.09,2.69,3.27-.19.46-.34.68,0,1.01,1.18,1.15,3.54,1.72,1.7,4.23-.35.47,1.36-.04,1.89,1.52.89,2.59.21,3.91-1.18,5.79-1.01,1.37-.16,3.01.9,4.32,1.01,1.26,2.23,2.49.35,4.07-.22.18-.07,1.07.17,1.48,2.65,4.71,2.86,10.11,4.25,15.16.69,2.5,1.49,4.89,2.67,7.17.6,1.15,1.59,2.33-.53,2.97-2.56-7.56-5.13-15.12-7.69-22.68Z"/>
  <path class="st13" d="M457.28,493.65c1.01,3.47.09,7.22,1.61,10.62.85,1.9-.13,3.19-1.56,4.28-3.07,1.87-7.72,1.54-10.94-.78.24-.45,1.24-.74.38-1.44-1.07-.88-.59-1.61.14-2.35.08-.62.44-1.38.21-1.84-.95-1.88.44-1.56,1.22-1.22,1.22.54,2.5,1.43,2.97-.52.44-1.81-.18-3.3-2.32-3.07,2.02-2.91,6.24-.68,8.28-3.7Z"/>
  <path class="st70" d="M360.37,813.81c-3.02-2.94-3.06-3.76-.3-6.14,1.19-1.03,1.32-3.61.96-5.22-.19-.83-.47-2.03.47-3.19,1.31-1.62,2.97-3.61.59-5.89-.66-.63-.48-1.67.5-2.13,1.25-.59,2.14-1.82,3.62-1.97.73.04,1.52-.09,1.99.69.35,1.43.57,2.83.48,4.36-.05.92.67,1.64-.9,1.26-.52-.12-.75.07-.8.62-.19,2.41-2,8.28-2.96,10.27-.86,1.76-1.53,3.61-2.29,5.42-1.2.11-2.51.14-1.36,1.92Z"/>
  <path class="st27" d="M606.4,573.69c1.9.64,3.22,1.65,2.54,3.95-.42.01-1.1-.14-1.22.06-2.74,4.33-7.61,3.75-11.62,5.11-1.01-.15-1.79.28-2.64.8-1.25.76-2.43.55-3.18-.87-.26-.75-.52-1.5-.79-2.29,2.47,1.05,5.26.29,5.95-1.59-.22-.23-.45-.45-.72-.63-.95-.65-2.3-1.23-1.81-2.62.55-1.53,2.05-.83,3.24-1.04,3.02-.55,6.3.96,9.11-1.14.34-.25.82-.07,1.15.26Z"/>
  <path class="st36" d="M461.39,525.88c-1.1.11-1.81-.41-2.25-1.39-1.11-2.45-2.76-4.4-5.33-5.66,3.68.81,7.26-.78,11.36.63-1.09-1.74-2.83-1.37-3.36-2.64,3.27.4,6.03,2.12,8.86,3.58,2.96,1.52,6.37,1.8,9.2,3.6-1.56,2.07-3.86.44-5.69,1.15-4.87-.87-9.74-1.75-14.62-2.62-.15,1.67,1.4,2.19,1.84,3.36Z"/>
  <path class="st52" d="M565.73,478.23c.75,1.26,1.52,2.51.93,4.3,2.07-2.85,3.75-.67,4.92.35,1.71,1.49,2.92,3.56,4.72,5.86-2.88-.23-4.82-1.6-6.61-2.79-2.4-1.58-4.21-1.56-5.85.89q-.63-1.68.02-3.46c-1.63.02-2.88-.2-3.84-1.98-1.01-1.86-3.3-2.22-5.42-1.8-.94.19-1.83.75-2.57-.33,4.42-2.32,9.13-.91,13.71-1.05Z"/>
  <path class="st5" d="M403.69,567.23c1.28-1.89,3.53-1.75,5.36-2.48.52-.21.72.42.88,1.01.64,2.35,2.97,2.24,4.28,1.74,1.55-.59.64-2.58-.1-3.53-1.73-2.23-1.48-4.02.53-5.77.27,1.33.53,2.67.8,4,.33-1.04,2.27-1.8.23-3.18-.93-.63-.01-1.89,1.09-1.96,1.6-.11,2.33,1.36,3.19,2.38.81.98.99,2.63,0,3.2-3.65,2.06-3.2,5.19-2.69,8.45-4.7-.66-9.04-2.59-13.57-3.85Z"/>
  <path class="st62" d="M446.92,503.98c-.73,2.14.83,2.02,2.48,1.86-.86,1.47-1.93,1.7-3,1.93-3.19-8.84-8.12-17.07-9.54-26.53-.57-3.83-1.59-7.73.27-11.52.47.03,1.66-.57,1.07.58-1.44,2.85.06,5.73.14,8.45.08,2.9.95,6.18,2.07,9.19,1.84,4.96,4.24,9.72,5.44,14.92.1.43.7.75,1.07,1.11Z"/>
  <path class="st31" d="M660,874.49c.84-1.01,1.99-.51,3.02-.65,1.28-.17,2.5-.37,1.59-2.17-.72-1.41.62-1.41,1.27-1.56,1.13-.26,2.43-.59,3.48-.29,3.79,1.11,6.85-2.85,10.76-1.28,1.17.47,2.64-.66,3.26-2.1.46-1.09,1.15-1.81,2.44-1.63-1.43,3.3-3.65,5.1-7.53,5.3-2.77.15-5.69,1.06-8.16,2.36-3.28,1.73-6.58,2.26-10.14,2.02Z"/>
  <path class="st18" d="M474.17,525.14c1.74-1.19,3.87-.4,5.69-1.15,3.88,1.47,7.77,2.94,11.65,4.42,1.79,1.89-.34,1.88-1.2,2.5-.31.12-.63.2-.96.25-1.17.04-2.42.33-3.23-.9-3.78-2.18-7.69-4.05-11.94-5.12Z"/>
  <path class="st31" d="M574.78,875.14c-2.16-1.93-2.55-4.81-3.62-7.27-.69-1.59,1.32-1.9,2.6-1.72,1.99.27,3.9.85,5.95.07.87-.33,2.06.52,1.15,1.37-3.2,3.02.51,2.7,1.62,3.53.54.4,1.5.04,1.99.8-2.31.21-4.35-.6-6.38-1.56-1-.47-2.02-1.52-3.2-.6-1.3,1.01-.53,2.28-.22,3.49.15.6.09,1.26.12,1.89Z"/>
  <path class="st11" d="M537.34,492.35c1.23,1.03.03,2-.2,2.88-2.34,8.98-1.51,17.12,5.96,23.6-.48.38-.98.28-1.48.04-7.53-6.05-9.36-13.55-5.67-23.29.42-1.1.93-2.16,1.39-3.24Z"/>
  <path class="st31" d="M616.1,877.09c6.02,0,12.04-.02,18.07-.02,3.67,0,7.29-1.06,10.99-.63-.27.32-.51.86-.83.92-3.41.6-6.85,1.57-10.27,1.55-5.52-.04-11.03-.74-16.55-1.21-.48-.04-.94-.39-1.41-.6Z"/>
  <path class="st65" d="M547.71,525.91c1.44.91-1.31,3.79,1.83,3.89-.04,1.86-.56,3.41-2.64,3.88-.51.47-1.03.94-1.66,1.51-.78-2.47-1.35-4.85-1.44-7.33,1.58-.09,3.37.23,3.9-1.96Z"/>
  <path class="st42" d="M417.94,755.11c-.12-.92.3-1.75.83-2.36,1.77-2.05,2.88-4.01.3-6.27-.6-.52,0-.93.44-1.23.57-.39.98-.57,1.88-.41,1.22.22,1.69,2.21,3.22,1.24-1.99,3.18-4.04,6.32-6.67,9.03Z"/>
  <path class="st15" d="M392.67,831.33c-.04.54-.18,1.3-.82.6-3.13-3.44-5.58-7.44-8.92-10.71-.54-.53-.05-1.21.12-1.81,3.68,3.59,6.69,7.71,9.62,11.91Z"/>
  <path class="st33" d="M543.76,484.6c.2.82.63,1.67.54,2.46-.16,1.34.35,3.03-1.69,3.63-2.35.7-.24-2.21-1.79-2.07-.19.02-.4-.14-.6-.21.87-1.56,2.02-2.85,3.54-3.81Z"/>
  <path class="st31" d="M649.02,875.78c.97-1.9,2.76-1.2,4.26-1.27,1.8-.09,3.61-.02,5.42-.02-3,2.17-6.44.98-9.68,1.29Z"/>
  <path class="st63" d="M528.87,551.11c-.01,2.35-.02,4.7-.03,7.05-1.74-2.36-1.78-4.71.03-7.05Z"/>
  <path class="st44" d="M541.61,518.88c.49-.01.99-.03,1.48-.04.8,2.03,4.6,1.64,3.91,4.86-1.83-1.57-3.88-2.9-5.39-4.82Z"/>
  <path class="st66" d="M490.19,530.43c.28-.78,2.27-.44,1.32-2.02.42.04.84.08,1.26.12,2.21,1.59.05,2.23-.69,3.19-1.12.29-1.61-.34-1.89-1.28Z"/>
  <path class="st12" d="M341.13,828.62c1.93.25,3.87.5,5.8.75-2.14,1.34-4.19,1.98-5.8-.75Z"/>
  <path class="st23" d="M611.55,518.84c-1.76.96-3.42-.33-5.14-.25-.03,0-.1-.18-.09-.27,0-.1.08-.2.13-.29,1.73.07,3.47.13,5.1.81Z"/>
  <path class="st16" d="M597.68,794.46c4.02-1.03,7.24,3.02,11.39.55-.19-1.41-2.76-2.72-1.62-5.12.27-.58-.59-.81-1.34-.83-1.61-.04-3.41.18-3.99-2.09-.76-2.99-1.36-5.31,2.77-6.8,4.62-1.67,8.24.57,11.96,1.93,4.82,1.75,9.92,2.41,14.66,4.46,2.32,1,4.65,2.07,7.04,2.94,9.34,3.41,18.64,6.94,28.07,10.07,8.82,2.93,11.65,10.4,6.59,18.3-.85,1.33-1.58,2.71.44,3.76.36.19.94.69.89.83-1.32,3.42.95,7.45-1.43,10.5-1.2,1.53-3.57,2.04-5.54.75-3.2-2.1-6.46-3.04-10.33-1.93-1.29.37-2.95-.27-4.38-.68-3.4-.97-6.84-.7-10.3-.69-2.41.01-4.86-.59-7.23-1.17-4.71-1.15-9.7-1.59-13.44-5.32-.77-.77-1.47-1.51-1.97-2.47-.46-.88-1.12-1.81-2.15-1.74-4.26.27-5.31-3.56-7.55-5.81-.91-.92-.74-1.82.62-2.82,2.34-1.7,5.23-2.54,7.23-4.72.42-.46,1.14-.88.95-1.57-.27-.99-1.27-.75-1.92-.63-2.63.49-5.34-.63-7.94.44-.63.26-1.36.1-1.61-.63-.21-.63.4-.88.85-1.17.8-.52,1.88-.99,1.61-2.14-.28-1.2-1.47-1.05-2.42-1.09-4.09-.18-6.12-4.25-9.89-5.13Z"/>
  <path class="st59" d="M525.73,621.47c.41-.23.83-.46,1.24-.69,3.48-1.16,6.73-.69,9.76,1.35-1.77,1.2-3.75.46-5.63.57-1.58.09-2.23.62-2.95,2.2-2.05,4.49-4.02,9.1-7.07,13.03-1.09,1.4-.8,2.15.48,2.69,3.42,1.45,4.37,3.43,2.15,6.76-2.29,3.44-1.61,7.41-1.68,11.29-.12,6.72.11,13.44.15,20.14.05,7.32.04,14.73,1.24,22.03.28,1.68.28,3.4.41,5.11.43.61,1.11,1.14.61,2.03,0,.63,0,1.25,0,1.88-.42,1.97-1.95,1.31-3.11,1.21-2.38-.2-3.95-2.04-5.84-3.2-1.26-.78-.19-1.38.61-1.76.53-.25,1.46.07,1.51-.83.05-.93-.89-1.42-1.5-1.4-2.73.11-5.35-1.96-8.14-.33-1.61.95-2.82.19-4.04-1.16,1.64-1.16,2.92-3.13,5.13-1.04,1.88-1.8,5.82,1.8,6.86-2.7.19-.82,2.09.3,3.26.04.66-.14,1.55.45,1.85-.61.3-1.04-.53-1.25-1.2-1.84-2.63-2.3-4.12-1.5-6.33.91-2.84,3.09-8.63,1.42-11.82-3.33,4.06,1.69,7.14-4.29,10.86-.24,1.14-.54.43-1.2.39-1.75-.1-1.28,2.04-3.16-.34-3.71-1.95-.45-4.35-1.07-6.01,1.55-1.47,2.32-3,2.06-4.56-.47-.61-.99-1.23-.52-1.9-.42-1.47.21-3.36,1.55-4.28-.18-1.04-1.95.77-3.66,1.73-5.31.46-.78,2.8-1.67-.29-1.83-.9-1.15-.21-2.28.11-3.36,2.58-8.67,6.59-16.76,10.55-24.84,3.96-8.08,8.29-15.98,12.08-24.15,1.36-2.93,3.04-5.66,5.68-7.65Z"/>
  <path class="st68" d="M536.73,622.13c-3.25-.45-6.51-.9-9.76-1.35.24-1.86-1.12-2.58-2.36-3.47-1.78-1.28-2.98-2.56-1.11-4.98,1.27-1.63,1.6-3.96,2.57-5.85,3.15-6.13,3.47-5.59,10.23-4.69,3.65.48,7.09,1.46,10.65-.18.55-.25,1.29-.25,1.91-.14,6.23,1.1,12.33.49,18.38-1.2.3-.08.73.32,1.1.5.96,3.6,1.89,7.21,1.25,10.99-1.26.23-2.51.51-3.78.69-1.6.23-3.2,1.08-3.62,2.37-1.45,4.41-4.8,4.91-8.66,5.04-5.67.19-11.08,2.48-16.81,2.27Z"/>
  <path class="st3" d="M679.1,791.67c-1.45,1.55-2.45,2.18-4.58,1.23-2.58-1.15-5.52-.04-8.04.99-2.02.82-3.18.12-4.03-1.34-1.05-1.8.85-1.7,1.74-2.22.62-.36,1.12-1.07.41-1.5-1.56-.95-2.37-3.33-4.81-2.64-1.14.32-1.71-.17-1.62-1.24.08-1,.79-1.49,1.81-1.35.31.04.65.15.89.34,3.82,3.15,8.37,2.72,12.87,2.84,1.38.04,5.59-1.8,2.75,2.95-.84,1.4,1.55,1.17,2.6,1.95Z"/>
  <path class="st3" d="M680.01,808.3c3.54-.13,6.61-.3,9.64-.85,1.42-.26,2.33.98,1.84,2.28-.92,2.5.58,4.57.81,6.85.08.81.49,1.42,1.31,1.64.88.24,2.23.16,1.63,1.65-.46,1.14-1.47,2.17-2.77,1.39-3.1-1.87-6.68-.71-10.09-1.91,1.58-1.37,3.62-1.34,5.24-2.24,1-.56,1.98-1.38,1.55-2.48-.5-1.27-1.75-.81-2.79-.44-.84.3-1.65,1.28-2.61.32-.81-.81-.28-1.45.27-2.21.73-1.02-.3-1.54-.94-2.01-.76-.55-1.89-.41-3.08-1.99Z"/>
  <path class="st3" d="M697.22,804.77c2.15.18,4.11-.06,5.18,2.97.46,1.3,4.04,1.51,6.22,2.16.6.18,1.29.06,1.89.25.35.11.79.54.83.86.07.67-.53.89-1.08.83-2-.25-4.41.04-5.89-.99-1.94-1.37-3.65-1.36-5.6-.9-2.95.69-4.41-1.71-6.37-3-.78-.51-.24-1.15.44-1.39,1.41-.51,2.83-1.01,4.39-.78Z"/>
  <path class="st3" d="M682.11,797.89c.85,1.24,1.53,1.68,2.47,1.73.83.04,1.91-.07,1.7,1.27-.16,1.03-1.03,1.29-1.95,1.29-2.26,0-4.68.08-5.84-2.37-1.08-2.28-3.13-.28-4.98-1.44,4.04-1.72,7.89-2.6,11.8-3.16,1.15-.16,1.05.78.45,1.5-.86,1.04-2.02,1.39-3.66,1.18Z"/>
  <path class="st3" d="M683.52,787.97c1.84.57,3.95.85,6.08-.43.95-.57,1.78.41,2.32,1.22.58.86.19,1.61-.46,2.27-.77.77-1.69,1.17-2.51.3-1.32-1.4-2.46-1.55-4.14-.42-1.35.91-2.84-.3-4.25-.63-.55-.13-.55-.86-.25-1.37.67-1.15,1.82-.87,3.21-.95Z"/>
  <path class="st3" d="M702.04,820.83c-2.64-.2-3.88-1.63-4.28-3.95-.23-1.28.7-1.2,1.39-1.04,1.14.26,2.24.71,3.36,1.09,1.28.43,3.42.73,3.33,1.91-.16,1.98-2.71,1.09-3.79,1.99Z"/>
  <path class="st3" d="M704.13,798.98c-2.75.34-4.49,2.92-7.21,3.08-.62.04-1.37.32-1.68-.4-.32-.76.4-1.11.95-1.4,2.49-1.32,5.03-2.46,7.94-1.28Z"/>
  <path class="st3" d="M708.95,824.66c-.09.71-.55,1.15-1.17,1.38-1.47.55-3.36-.22-4.47,1.63-.25.42-1.09-.36-1.47-.86-.53-.7-.22-1.26.48-1.49,1.89-.62,3.81-1.21,5.74-1.69.56-.14.93.38.89,1.03Z"/>
  <path class="st3" d="M663.78,861.16c-.63.67-.91,1.22-1.33,1.38-1.2.45-2,2.26-3.65,1.21-.28-.18-.57-.84-.46-1.07.74-1.43,2.29-1.36,3.59-1.7.44-.11.96.08,1.85.17Z"/>
  <path class="st3" d="M669.96,795.1c.61.08,1.58-.03,1.31.89-.33,1.13-1.5,1.44-2.58,1.59-.58.08-1.25-.32-1.15-.84.23-1.23,1.24-1.62,2.41-1.64Z"/>
  <path class="st67" d="M524.45,707.98c-.2-.68-.41-1.35-.61-2.03.87.24,1.85-.27,2.68.42-.28,1.11-1.09,1.47-2.07,1.61Z"/>
  <path class="st3" d="M494.06,890.64c-3.49-.16-6.37-2.17-9.56-3.24-11.05-3.72-21.44-8.96-31.98-13.88-4.53-2.11-9.36-3.57-13.64-6.28-1.09-.69-2.05-1.44-2.99-2.36-1.22-1.19-2.35-2.49-4.52-2.62-1.37-.08-2.62-1.89-3.81-2.94-3.05-2.71-5.66-6.27-9.81-7.65-.48-.16-.94-.54-1.29-.92-5.45-5.93-12.55-9.8-18.6-14.98.21-.04.6-.08.6-.11-.03-2.94.97-3.47,4.27-2.22,5.05,1.91,5.42,1.47,8.63-2.33,1.87-2.21,4.33-4.52,7.77-4.35,1.64.08,2.68-.82,4-1.58,3.54-2.05,6.92-4.53,10.99-5.51,2.28-.55,4.5-.93,5.69-3.42.78-1.64,2.96-1.51,4.24-2.72,2.39-2.26,6.44-1.92,8.3-5.19.3-.54,1.19-.22,1.8.03.82.33,1.9-.08,1.96-.61.42-3.63,3.87-4.14,6.07-5.55,2.97-1.92,5.3-4.55,8.26-6.4.36-.22.72-.87.95-.81,3.86,1,4.18-2.17,5.83-4.31,1.66-2.16,4.56-3.37,5.29-6.41.28-1.16,1.23-1.28,2.21-1.5,1.32-.3,2.49-1.16,2.59-2.51.09-1.29-1.36-1.49-2.32-1.84-1.04-.38-2.45-.85-2.14-1.95.41-1.45,1.74-.41,2.7-.23.79.15,1.6.23,3.47.49-3.29-2.19-3.17-4.12-1.39-6.15.21-.24.42-.23.64,0,.65-.43,1.29-.86,1.94-1.29,1.22-.66,2.18-2.05,3.87-1.3,3.41.91,5.23-2.01,7.75-3.22,1.1-.4,2.18-1.07,3.31-1.14,1.56-.1,4.1-1.07,3.29,2.36-.14.57.11,1,.65,1.31,1.87,1.06,1.32,2.46.32,3.71-.71.89-1.28,1.75-1.1,2.89.75,4.72-2.59,7.99-4.02,11.94-.85,2.35-1.69,4.73-2.52,7.11-3.49,9.98-3.52,20.52-5.18,30.8-1.25,7.72-.7,15.44-.39,23.11.25,6.31,1.24,12.7,3.05,18.86.11.39.42.72.64,1.07-.19,1.97.45,3.98-.86,5.9-1.16,1.7.92,2.01,1.71,2.81.61.63,2.12.85,1.34,2.07-.73,1.15-1.41-.27-2.13-.47-2.01-.56-3.92-1.86-6.12-.81-.74.35-1.82.48-1.98,1.43-.18,1.09,1.04,1.17,1.63,1.72.96.9,2.09,1.07,3.29.73,3.59-1.01,8.22,1.41,7.78,4.76-.33,2.51,1.12,2.28,2.13,2.94,1.76,1.15,3.31,1.87.67,4.09-.95.8-2.26,1.84-2.92,3.17-1.75-.28-3.54-.39-5.14-1.26.4-.44.9-.5,1.45-.37-.24-.49-.85-.21-1.17-.57-1.46-1.64-3.86-1.01-5.48-2.28Z"/>
  <path class="st2" d="M525.73,621.47c-3.04,4.62-5.57,9.51-8.03,14.47-6.46,13.01-13.44,25.76-18.58,39.39-.75,1.99-1.21,4.09-1.81,6.14-.34.37-.96,1.43-1.15.41-.29-1.63-2.17-2.93-.94-4.95.5-.83-.38-.91-1.05-.65-1.84-1.55-1.56-3.89-1.89-5.87-.51-3.06-1.52-5.9-2.69-8.72.1-4.11,1.56-7.64,4.49-10.55,2.75-4.34,3.11-9.32,3.79-14.21-.75-.88-.89-1.93-.72-3.01.77-4.87.25-9.77.5-14.65-.05-.39-.05-.79-.02-1.19.37-2.29-.64-4.77.93-6.9.98-3.78.62-7.64.69-11.47.01-.61-.23-1.42.48-1.72.99-.42,1.33.52,1.58,1.15,1.22,3.11,5,3.6,6.5,6.29,1.66,2.98,4.62,4.12,7.2,5.88,4.11,2.8,7.52,6.38,10.73,10.16Z"/>
  <path class="st14" d="M490.18,661.49c2.54,4.61,2.89,9.8,3.99,14.8.01,1.49.02,2.99.03,4.48-.08,1.48-.16,2.96-.24,4.45.03-5.27-2.22-10.18-2.44-15.35-.1-2.28-2.07-3.84-1.86-6.18.04-.44-1.15-.93-1.95-.76-2.23.47-4.49.41-6.75.52-5.27.26-10.52.85-15.78,1.24-.91.07-1.96.34-2.7-.58,1.09-1.47,2.73-1.67,4.31-1.62,6.64.21,13.12-1.42,19.73-1.55,1.27-.03,2.55-.4,3.66.56Z"/>
  <path class="st31" d="M569.39,782.98c-2.73-.25-5.28-2.2-8.18-.87-.47.22-1.07-.21-1.14-.84-.09-.72.36-1.17.97-1.5,2.22-1.2,8.73,0,10.55,1.9.36.38.44.73.16,1.1-.72.97-1.55.2-2.35.2Z"/>
  <path class="st31" d="M552.72,772.09c.02.8-.54,1.08-1.16,1.26-.65.19-1.06-.21-1.05-.78.02-.77.78-.92,1.35-1.1.44-.14.8.1.86.62Z"/>
  <path class="st48" d="M498.53,618.21c0,.23,0,.45-.01.68-.33,1.51-1.31,2.09-2.79,2.01-.96-.05-2.08-.32-2.81.39-3.97,3.87-8.81,2.32-13.41,2.26-1.62-.02-2.85-.79-4.01-1.81-.77-.67-1.45-1.37-.96-2.47.53-1.18,1.13-2.59,2.67-2.4,4.95.62,9.34-1.67,14.02-2.47.29-.05.58.11,1.2.1-2.15-.89-4.26,1.14-6.06-.54-.19-.18-.6.13-.79.39-2.37,3.3-5.73,2.58-8.99,2.19-.74-.09-1.46-.42-2.22-.36-1.87.16-2.77-.59-2.83-2.55-.05-1.81-.19-3.44,2.1-4.06,1.57-.43,3.18-.45,4.84-.89-5.29.1-7.84-3.71-10.61-7.21-.41-.52-.89-1.37-.38-1.74,3.13-2.28.95-5.42,1.24-8.07.49-4.39.14-8.88-2.47-12.82-.79-1.19-.61-2.71-.9-4.06-1.08-5.07-5.71-6.16-9.29-8.42-.36-.23.11,0-.3-.1-2.14-.57-3.86-1.7-4.07-4.02-.23-2.56,2.12-2.87,3.8-3.82-2.3-1.4-4.52-2.41-7.55-1.9-1.6.26-4.12,0-5.35-2.16-.44-.77-1.42-.91-2.17-1.31-.87-.46-2.22-.57-1.87-2.13,6.6,1.82,13.28,3.21,20.08,4.01,1.12.13,2.19.76,3.28,1.16,1.84.54,3.21,2.12,5.02,2.56,2.06.5,3.6,1.96,5.67,2.48,1.73.43,2.61,2.03,1.01,3.72-1.43,1.51-1.06,2.54.59,3.46,1.86,1.03,3.39,2.59,5.52,3.21,1.55.45,2.55,1.66,2.75,3.27.29,2.33,1.53,3.91,3.41,5.18,1.52,1.03,2.68,2.5,3.74,3.95.65.88,1.38.82,2.17.95.08.04.18.08.27.13.32.2.31.21.21-.09-.53-1.54-1.99-2.92-.84-4.75,2.76,4.74,5.07,9.47,5.57,15.21.45,5.18,1.11,10.34,1.08,15.56.4,2.4-.48,4.89.46,7.26Z"/>
  <path class="st38" d="M546.9,533.68c.88-1.29,1.76-2.59,2.64-3.88,1.7.19,2.33,2.74,4.67,1.94.6-.21.11,4.2-1.15,4.4-2.87.47-2.91,2.16-3.3,4.7-.61,4,1.6,7.99.71,11.19-1.03,3.67.5,5.6,1.52,8.34.71,1.9,2.17,2.14,3.42,2.98,1.94.37,3.74.99,4.9,2.75.29.44.58,1.07,1.19.87,3.59-1.14,7.33,1.82,10.94-.45.49-.31,1.67.48,2.54.76-.28.41-.57.82-.85,1.22-3.05,2.09-6.58,1.85-9.91,1.55-1.35-.12-2.91-.35-4.32-.79-2.31-.99-4.55-1.91-7.16-2.25-2.75-.35-4.35-2.86-5.55-5.35-3.18-6.62-3.48-13.52-1.99-20.58.52-2.48,1.13-4.94,1.71-7.42Z"/>
  <path class="st37" d="M490.19,530.43c.63.43,1.26.86,1.89,1.28-1.79,1.58-4.19,2.87-2.77,5.95.34.74-.2,1.23-.67,1.66-3.09,2.86-3.62,6.89-4.86,10.59-.13.39.09.96-.12,1.26-4.16,6.02-.04,11.03,1.98,16.27,1.23,3.18,2.6,6.31,3.9,9.47-.24.24-.53.35-.87.32-2.02-.68-3-2.35-3.72-4.14-.92-2.27-1.87-4.51-2.99-6.69-.95-1.85-.94-3.53-4.28-3.75-2.87-.19-5.98-2.79-9.07-4.16-.4-.18-.56-.66-.15-1.04.36-.33.8-.17,1.19,0,.43.03.86.04,1.28.11,6.16,1.02,5.9,1.01,6.4-5.43.54-6.96,2.23-13.65,7.03-19.11,2.4.16,3.78-1.98,5.84-2.59h0Z"/>
  <path class="st22" d="M559.9,569.27c4.77.32,9.5-.14,14.23-.76,2.52.32,5.27-.86,7.47,1.45,1.05,1.1,1.17,2.36.16,2.98-1.42.86-1.77,2.52-3.1,3.33-2.42-2.04-5.67-1.91-8.41-3.23-3.29-1.59-6.89-2.54-10.35-3.77Z"/>
  <path class="st39" d="M540.57,562.07c-1.53-4.61-3.08-9.21-4.56-13.83-.58-1.82-.93-3.78-2.73-4.82-1.44-.83-.07-1.91-.44-2.82-.31-.75.69-2.49-1.43-1.77.07-1.32.54-2.47,1.53-3.74,3.05,8.8,6.77,17.09,8.35,26.08.36.78-.03.96-.72.9Z"/>
  <path class="st26" d="M540.57,562.07c.24-.3.48-.6.72-.9,2.35,4.75,3.54,9.8,3.8,15.09-1.06.04-1.19.04-1.23-.98-.16-4.64-2.21-8.8-3.29-13.2Z"/>
  <path class="st20" d="M488.92,576.92c.21.01.42.01.63,0,.63,1.09,1.25,2.18,1.88,3.27.49,1.71,1.2,3.39,1.4,5.13.15,1.25-.48.76-.82.04-1.78-2.54-3.79-4.99-3.09-8.44Z"/>
  <path class="st2" d="M523.56,606.86c-.63.76-.84,2.06-2.07,2.17-.83.08-1.03-.71-.75-1.37.35-.85.53-1.98,1.71-2.1.76-.08,1.11.5,1.12,1.3Z"/>
  <path class="st9" d="M498.53,618.21c-2-2.3-1.08-4.79-.46-7.26.15.11.31.19.49.23,0,2.34-.02,4.68-.02,7.02Z"/>
  <path class="st9" d="M438.54,550.94c1.05,1.64,3.01,1.47,4.5,2.23.94.48.73,4.44,3.05,1.04.15-.21.73.38.67.83-.18,1.17.4,1.41,1.27.96,2.43-1.27,4.43-.71,6.44,1,.71.6,1.95.58,2.97.85-.42,1.55-1.76,1.36-2.8,1.8-1,.43-2.47.86-2.37,2.28.1,1.42.95,3.12,2.35,3.14,3.51.04,5.08,4.41,8.92,3.76.3-.05,1.59,2.75,2.01,4.24,1.31,4.56,2.34,9.18,5.16,13.14.12.16.27.5.21.56-3.56,3.53-.72,7.31-.41,10.98.04.5,0,.88-.46,1.01-3.75,1.05-1.32,2.05-.22,3.62,2.31,3.33,4.7,5.99,9.25,5.11.74-.14,1.2.44,1.29,1.14.1.82-.45,1.15-1.18,1.17-1.82.06-3.6.18-5.41.56-3.15.66-1,2.79-1.25,4.13-.34,1.82,1.08.8,1.9.7,1.64-.2,3.39.41,4.75.78,3.42.94,4.89-.56,6.27-3.02.19-.34.48-.64,1.02-1.32.75,3.11,2.36,2.85,4.27,1.56,2.55-1.73,1.22,2.28,2.82,2.2-.74-.13-1.49-.26-2.23-.38-.21-.03-.6-.05-.62.02-.23.71.96,2.97-1.41,1.29-1.43-1.01-2.66.12-3.98.2-2.64.16-4.98,2.34-7.94.92-1.32-.63-1.46,1.24-2.12,1.96-.82.89.26,1.05.69,1.6,1.3,1.67,2.96,1.84,4.85,1.77,1.6-.06,3.23-.22,4.76.48,2.51,1.16,4.06-1,5.66-2.04,1.56-1.01,2.82-1.5,4.56-1.07,1.2.3,2.03-.39,2.74-1.26.2,6.03.19,12.05-.65,18.05-.97,0-2.4,1.31-2.58-.92-.04-.51-.64-.88-.85-.53-1.5,2.42-3.06.58-4.69.27-1.65-.31-3.61-.58-3.51,2.22.02.67-.53,1.49-1.15,1.28-3.72-1.22-7.05.97-10.61,1.12-.94.04-1.91.03-2.33-.66-.96-1.57,1.21-.89,1.19-1.29-.07-1.51-.37-3.01-.71-4.49-.23-.98-1.11-.88-1.85-.74-1.82.35-2.78-.1-2.21-2.17.07-.26-.07-.83-.16-.84-4.03-.44-2.26-2.18-1.11-4.09.25-.42-.67-1.69-1.23-2.44-1.67-2.26-1.64-3.91,1.45-4.67.61-.15,1.43-.18,1.56-.93.16-.89-.63-1.5-1.3-1.57-2.12-.2-2.04-2.92-4.03-3.3-.56-.11-.22-.98.22-1.3,4.14-2.92,1.65-5.78-.09-8.6-1.15-1.86-3.49-3.4-.02-5.59,1.21-.77-.11-1.99-1.68-2.27-2.74-.49-3.31-1.99-1.14-3.74,3.23-2.61,1.38-4.74-.32-6.67-1.02-1.16-1.59-2.14-1.53-3.63.02-.61-.08-1.61-.43-1.78-2.67-1.25-3.49-2.57-.89-4.85.57-.5.61-1.44,1.78-1.28.84.12,1.55-.47,1.21-1.39-.27-.74-.83-1.74-1.9-.98-1.13.8-1.72.53-2.65-.47-3.48-3.76-7.44-6.89-12.45-8.46-.67-.21-2.09.22-1.66-1.21.26-.85,1.01-1.75,2.24-1.02.43.25.91.84,1.35.14.42-.67-.06-1.41-.57-1.63-1.55-.67-2.9-2.17-4.95-.77-1.45.99-2.96-.24-4.75-.69.78-.68,1.4-1.05,1.78-1.59.56-.82.78-1.71-.76-1.58-.78.07-1.7.95-2.27-.15-.51-.97-.17-1.97.87-2.44.96-.44-.62-1.19.29-1.52,1.05.41,2.09.81,3.14,1.22Z"/>
  <path class="st4" d="M490.18,661.49c-9.23.87-18.46,1.74-27.7,2.61-.47.01-.94.03-1.42.04-2.38,1.09-4.92,1.8-7.32,2.87-.87.39-1.8.66-2.3,1.57-.2.24-.4.48-.6.71-.96.87-1.75.81-2.56-.28-.8-1.08-1.74-2.04-2.62-3.06,3.94-2.2,8.47-1.61,12.39-2.76-1.95-.97-2.71-1.05-4.75-.34-.2.07-.47.27-.59.21-4.31-2.29-8.72.7-13.08-.24-1.69-.36-2.91-.92-2.98-2.73-.05-1.43-.76-3.42,2.2-3.05.47.06,1.48-3.17.78-3.42-1.32-.48-2.17-3.8-4.56-1.02-.86,1-2.49-.54-3.35-1.65-.78-1-1.14-2.1.03-3.12.27-.23.4-1.01.89-.52,2.42,2.42,5.18-.15,7.62.57,4.93,1.46,10.36-2.14,15.04,1.6.74.59,1.65.97,2.27,1.74,2.52,3.13,5.01,3.19,7.87.23,2.79-2.89,3.68-2.78,7.12-.75,1.75,1.03,3.93,1.64,6.16,1.1,1.86-.45,3.74-1.05,5.63-1.15,2.24-.12,4.33.19,4.49-3.06.06-1.12,1.4-1.13,2.39-.73.58.23,1.36.45,1.35,1.21-.02,1.76-1.73.68-2.47,1.41.91,1.52,2.1,2.32,3.95,1.64-1.53,3.36-3.49,6.56-3.9,10.34Z"/>
  <path class="st5" d="M414,554.32c-.94-.68-1.9-1.35-2.83-2.04-.72-.55-2.22-.65-1.95-1.78.28-1.2,1.59-.6,2.48-.56,1.57.07,1.02-1.15.99-1.81-.21-3.96-.93-7.88-.68-11.89.13-2.05.55-4.01.94-5.98.34-1.73,1.21-3.02,3.32-1.35,1.38,1.09,2.96,1.9,4.23,3.2,2.29,2.35.26,4.52-.06,6.77-1.4,1.68-2.75,3.43-5.26,3.28.07,1.09.8,1,1.38,1.2,1.95.7,4.2,1.07,3.99,4.01-.08,1.13,1.17,1.43,1.88,2.02.68.57,1.6,1.05.63,1.96-.69.65.55,2.26-1.11,2.19-1.21-.05-1.47-1.08-1.48-2.11,0-1.63-.86-2.38-2.42-2.26-1.53.12-2.93-.37-4.28-.96-1.07,2.22.26,4.13.23,6.11Z"/>
  <path class="st46" d="M488.92,576.92c.32,3.07,2.68,5.4,3.09,8.44-1.15-.09-2.11.17-3.17-1.16-1.4-1.76-2.87-3.72-5.08-4.76-.35-.17-.79-.6-.81-.94-.38-6.38-6.84-6.83-10.11-10.37-1.17-1.26-1.46-2.58-.04-3.54,2.19-1.48.66-2.8-.51-2.86-2.28-.12-3.62-2.19-5.79-2.22-1.1-.02-1.71-.65-2.28-1.52-.41-.62-1.16-1.76-1.54.08-.09.41-.42.65-.56.36-.33-.71-1.01-1.47-.21-2.31,2.55.63,5.25.37,7.74,1.34-.27.18-1.08.42-.66.58,2.93,1.15,6.3,1.35,8.36,4.25.13.18.69.29.88.17,3.92-2.44,3.17,1.49,4.27,3.03,2.56,3.58,2.43,8.66,6.42,11.43Z"/>
  <path class="st3" d="M387.21,548.54c2.06-.86,3.83-.68,4.83-2.14.18-.27,5.99,1.98,6.13,2.33.31.77-.26,1.6-.71,1.45-2.23-.75-4.46,3.46-4.76,1.69-.63-3.6-3.1-2.28-5.49-3.33Z"/>
  <path class="st3" d="M375.24,533.01c1.47.51,3.54.35,4.25,2.44.2.6-.62.87-1.1.62-1.68-.85-4.35.31-5.1-2.23-.22-.75,1.04-.77,1.96-.83Z"/>
  <path class="st3" d="M405.96,531.76c1,.58,2.86.15,3.02,1.62.11,1.03-1.44,1.38-2.46,1.5-1.28.15-2.41-.48-2.51-1.79-.07-.97,1.11-1.05,1.95-1.34Z"/>
  <path class="st66" d="M490.2,530.43c-1.05,1.43-2.48,2.4-3.94,3.36-1.11.73-1.46-.05-1.9-.77.58-.92,1.17-1.84,1.75-2.76,1.36.06,2.72.11,4.08.17Z"/>
  <path class="st3" d="M425.14,536.07c0-.71-.09-1.05.02-1.3.51-1.21.5-2.81,2.22-3.18.51-.11.85.15.79.65-.2,1.77-1.13,2.96-3.03,3.83Z"/>
  <path class="st3" d="M387.6,558.07c.58-.28.77-.45.95-.45,1.31.05,2.8-.63,3.76.83.1.15-.09.72-.24.76-1.57.47-3.05.42-4.48-1.15Z"/>
  <path class="st3" d="M368.86,532.41c-1.31.75-2.12.74-3.24,0,1.16-.82,1.98-.87,3.24,0Z"/>
  <path class="st3" d="M367.1,545.59c.87-.9,1.49-1.46,2.4-1.05.19.09.4.63.31.77-.66.96-1.54.66-2.71.28Z"/>
  <path class="st43" d="M596.46,863.04c-.16,1.25-4.39,3.72-5.16,2.98-1.36-1.33-3.11-1.43-4.71-1.83-2.81-.7-1.31-2.43-.62-3.22,2.14-2.43,8.53-1.46,10.15,1.35.15.26.25.55.33.72Z"/>
  <path class="st3" d="M535.13,887.02c.45,2.37,1.22,4,3.87,2.79.96-.44,2.05-.77,2.13.73.06,1.06,2.12,1.83.51,3-1.01.73-2.19,1.5-3.5.44-.49-.4-.86-.99-1.41-1.25-1.09-.53-2.63.41-3.5-1,1.85-1.02-.14-3.4,1.9-4.71Z"/>
  <path class="st3" d="M564.2,887.91c-2.69-.62-5.2-1.83-7.85-.61-.56.26-1.28-.04-1.46-.85-.12-.56,0-1.05.48-1.42,2.84-2.13,7.38-.8,8.84,2.87Z"/>
  <path class="st3" d="M570.56,878.41c1.43.42,2.91.79,2.9,2.77,0,.96-.28,1.93-1.42,1.49-1.39-.53-3.6-.03-3.92-2.11-.2-1.33,1.18-1.85,2.43-2.16Z"/>
  <path class="st31" d="M665.13,851.95c2.15-.47,3.58,1.21,5.39,1.72.79.22,1.28.86.85,1.74-.45.92-1.4,1.35-2.1.67-1.41-1.35-3.79-1.78-4.14-4.14Z"/>
  <path class="st31" d="M626.24,859.24c-.38,1.76-1.29,2.39-2.76,2.25-.5-.05-.83-.46-.6-.87.73-1.27,2-1.19,3.36-1.38Z"/>
  <path class="st43" d="M598.1,860.48c1.05-1.14,1.88-.9,2.94-.38-.8,1.13-1.68.91-2.94.38Z"/>
  <path class="st67" d="M461.66,776c-2.47-.55-4.84-1.1-7.22-1.62-.49-.11-.84-.39-.75-.84.14-.74.5-1.63,1.34-1.57,3.68.24,7.34-1.06,11.03-.13.79.2,1.45.32,1.49,1.29.03.84-.39,1.38-1.04,1.84-1.5,1.08-3.34.51-4.84,1.02Z"/>
  <path class="st67" d="M488.26,770.56c-.21,0-.43,0-.64,0-1.85.26-3.29,1.47-4.96,2.14-.59.24-1.23.63-1.76.05-.67-.73,0-1.3.34-1.97,1.11-2.15,3.14-2.34,5.14-2.4,1.27-.04,1.76,1,1.88,2.17Z"/>
  <path class="st3" d="M402.41,808.02c1.7-.04,3.63-.25,3.53,1.84-.1,1.97-2.08,1.19-3.33,1.37-1.71.24-3.21-.27-3.06-2.17.16-1.98,2.06-.6,2.86-1.04Z"/>
  <path class="st67" d="M456.47,747.51c1.56-1.12,2.78-1.54,4.17-1.46.81.04,1.99-.14,1.94,1.03-.05,1.04-1.08,1.62-2.12,1.47-1.19-.17-2.35-.6-3.99-1.04Z"/>
  <path class="st67" d="M494.07,767.98c-1.29.43-2.58.87-3.87,1.3,2.11-2.97,2.15-3,5.37-2.93.34,1.32-1.32.81-1.5,1.63Z"/>
  <path class="st67" d="M471.07,770.41c-.29-.45-.68-.78-.67-1.1.03-.88.66-1.28,1.5-1.24.53.02,1.24.32.95.87-.31.58-1.08.92-1.79,1.47Z"/>
  <path class="st67" d="M472.76,776.46c-1.56,1.57-2.75,1.24-4.16.95,1.08-1.53,2.38-.92,4.16-.95Z"/>
  <path class="st40" d="M494.06,890.64c2.95-.47,5.38.37,7.14,2.92-.53.62-1.29.17-1.94.3-.42,0-.85-.01-1.27-.02-1.02-.24-2.03-.56-3.06-.71-1.98-.29-1.32-1.41-.87-2.49Z"/>
  <path class="st29" d="M606.4,573.69c-3.43,2.57-7.29,1.61-11.06,1.36-.76-.05-1.6-.19-1.97.63-.37.83.48,1.03.99,1.34.7.42,1.06,1.02,1.07,1.83-1.32.13-2.37-.41-3.53-1.04-2.33-1.26-2.32-2.69-.34-3.92,1.35-.84,1.58-1.67.93-2.8-1.19-2.09.3-2.29,1.69-2.64.37-.34.79-.36,1.25-.23.29.14.53.36.78.55.41.31.81.13,1.2-.05-.37-.2-.94,0-1.13-.58-.51-2.09-.49-4.14.51-6.1,1.15-.77,2.28-1.69,3.56-.18.34.4,1.07.94.53,1.25-1.16.67-1.87,1.4-.87,2.55,1.79,2.07,2.76,4.8,4.99,6.45.75.55,1.68.12,1.63-1.11-.03-.85-.12-1.69-.18-2.54.96.6,1.92,1.21,3.11,1.96-1.3.89-2.47,1.86-3.17,3.25Z"/>
  <path class="st53" d="M595.46,568.58c-.43-.04-.85-.07-1.28-.11-2.74-2.68-2.95-6.51-4.36-9.79-.78-1.81.41-3.58,2.15-4.08,1.81-.53,3.37.7,3.95,2.45.53,1.59.6,3.34.87,5.02.63,2.16-.28,4.28-.14,6.43-.37.36-.77.42-1.19.09Z"/>
  <path class="st57" d="M567.3,539.71c-.41,2.44-2.08,3.07-2.97,4.31-.51.71-1.33.8-1.96.32-.44-.34-.86-1.03-.85-1.57.01-.87,1.05-1.33,1.59-1.19,1.67.45,2.58-.79,4.19-1.88Z"/>
  <path class="st57" d="M579.13,510.91c-.27,1.13-.91,1.53-1.7,1.32-.99-.26-2.08-.51-2.45-1.71,1.38-.31.64-2.53,2.15-2.55,2.25-.03-.46,3.15,2,2.93Z"/>
  <path class="st14" d="M451.45,668.58c2.53-2.95,5.7-4.51,9.62-4.44.51,1.65,1.16,2.89-1.83,2.7-2.57-.16-5.33.51-7.79,1.74Z"/>
  <path class="st24" d="M433.43,675.6c3.99-3.75,8.46-2.04,12.79-.97.72.18,3.41,1.15.25,2.51-1.97.85.01,2.4-.09,3.64-1.14-.06-2.03.45-2.93,1.11-1.09.8-2.17,1.74-3.51.13-1.07-1.28-2.43,1.54-3.6-.22-.45,1.09.76,1.36.67,2.45-2.57-1.46-3.03,2.24-4.73,2.03-3.86-.5-5.59,2.31-7.93,4.27-1.21.28-2.03,1.02-2.7,2.06-.54.83-1.18,1.79-2.47,1.15,1.84-1.27-.54-2.36-.07-3.76.95-.19,2.93.62,2.24-1.93-.14-.52.73-1.92,1.8-2.24.58-.17,1.97.45,1.43-.7-.88-1.88,4.65-4.08-1.6-5.52,3.38-.74,5.05-3.14,7.94-1.71.39.19,1.18-1.98,2.51-2.29Z"/>
  <path class="st58" d="M468.81,472.26c-2.68,1.59-2.78,4.68-4.02,7.09-1.13,2.19-2.29,4.05-4.85,4.71-3.27.84-.8,3.39-1.41,5.04-1.99-2.98-1.89-4.14.98-5.92,2.94-1.82,5.05-4.02,5.7-7.6.37-2.04,1.95-3.16,3.6-3.32Z"/>
  <path class="st42" d="M397.53,758c1.78-.84,3.54.05,5.27-.04.39-.02,1.63.13,1.23,1.15-.23.6-.76,1.27-1.74.97-1.64-.5-3.35-.81-4.76-2.08Z"/>
  <path class="st61" d="M368.15,778.93c.14-1.39-.41-2.5-1.4-3.63,1.67.96,3.31,1.18,5.12.41-1.23,1.09-2.45,2.17-3.68,3.26,0,0-.05-.04-.05-.04Z"/>
  <path class="st61" d="M379.44,771.46c.46,1.2.63,2.29-.11,3.3-.15.21-.82.21-1.15.06-.33-.14-.78-.66-.72-.89.2-.75.62.02.94-.03,1.95-.27-.56-1.82,1.05-2.45Z"/>
  <path class="st55" d="M347.81,814.63c.74-.86,1.48-1.71,2.48-2.87.38,2.34-1.16,2.66-1.87,3.62-.2-.25-.4-.5-.6-.75Z"/>
  <path class="st31" d="M616.3,794.4c2.02,1,5.58-.26,5.9,4.08.1,1.4,2.01,1.7,3.45,1.8,1.45.1,2.56.82,2.57,2.33,0,1.42-1.35,1.35-2.37,1.64-2.38.68-4.33,1.22-5.8-1.89-.62-1.32-3.34-2.62-4.83-2.36-3.76.66-3.48-2.04-3.6-3.88-.12-1.95,2.25-.57,3.16-1.51.23-.24.82-.12,1.52-.19Z"/>
  <path class="st67" d="M513.46,684.04c2.1.64,3.19-1.91,5.07-.62.42.29.96.67,1.05,1.1.13.65-.57.68-1.07.86-1.72.64-3.47,1.87-5.05-1.34Z"/>
  <path class="st67" d="M502.21,683.06c.71,0,.87.48.86,1.04,0,.59.21,1.4-.61,1.57-.76.16-1.1-.47-1.19-1.15-.09-.71.26-1.2.93-1.47Z"/>
  <path class="st57" d="M595.46,568.58c.4-.03.79-.06,1.19-.09.41-.51.83-1.02,1.41-1.74.43,1.54-.12,2.38-1.12,2.86-.88.42-1.39-.1-1.48-1.03Z"/>
</svg>